<svg width="80" height="80" viewBox="0 0 80 80" fill="none" xmlns="http://www.w3.org/2000/svg">
<mask id="mask0_6195_55587" style="mask-type:alpha" maskUnits="userSpaceOnUse" x="0" y="0" width="80" height="80">
<circle cx="40" cy="40" r="40" fill="#D9D9D9"/>
</mask>
<g mask="url(#mask0_6195_55587)">
<circle cx="40" cy="40" r="40" fill="#4416FF"/>
<path d="M32.778 35.4497C38.5389 32.6945 43.0474 28.019 45.6357 22.1746C43.9658 20.4213 41.7951 19.1689 39.4573 18.4175L38.2049 18C38.1214 18.167 38.0379 18.4175 38.0379 18.5845C36.0342 24.2619 31.9431 28.8539 26.4326 31.4421C22.592 33.2789 19.7533 36.6186 18.4175 40.6262L18 41.8786C18.167 41.962 18.4175 42.0455 18.5844 42.0455C20.1708 42.63 21.7571 43.3814 23.26 44.2998C25.3472 40.5427 28.6869 37.37 32.778 35.4497Z" fill="white"/>
<path d="M56.9968 35.7812C53.9076 40.4568 49.6496 44.2139 44.3896 46.7186C40.1315 48.7224 36.8754 52.4796 35.3725 56.9881L34.9551 58.4074C36.5414 59.8268 38.4617 60.9122 40.549 61.5801L41.8014 61.9976C41.8849 61.8306 41.9684 61.5801 41.9684 61.4131C43.9721 55.7357 48.0632 51.1437 53.5737 48.5555C57.4143 46.7186 60.3365 43.379 61.5888 39.3714L62.0063 38.119C60.253 37.6181 58.5832 36.7831 56.9968 35.7812Z" fill="white"/>
<path d="M31.6111 54.0683C33.6984 49.0588 37.539 44.9677 42.465 42.63C46.9735 40.4592 50.7306 37.1195 53.3188 33.0285C51.3985 31.1916 49.8122 29.1044 48.6433 26.5996C45.5541 32.277 40.7116 36.8691 34.7837 39.7078C31.3606 41.2941 28.6054 44.0493 26.9355 47.389C28.7724 49.1423 30.2752 51.3131 31.4441 53.7343C31.4441 53.7343 31.5276 53.9013 31.6111 54.0683Z" fill="white"/>
</g>
</svg>
