<svg width="33" height="28" viewBox="0 0 33 28" fill="none" xmlns="http://www.w3.org/2000/svg">
<path d="M29.5215 10.7626C29.464 10.9582 29.2755 11.4594 28.7683 11.8888C28.2163 12.3562 27.4622 12.5932 26.5268 12.593C25.7892 12.593 24.9407 12.4434 24.0051 12.1481C23.8299 12.0927 23.6386 12.134 23.5016 12.2564C23.3645 12.3788 23.3023 12.5643 23.3376 12.7446C23.3401 12.7567 23.5729 13.9743 23.3308 15.2766C23.0246 16.9247 22.1106 17.9104 20.6145 18.2068C20.5222 18.225 20.4367 18.2678 20.3669 18.3307C19.684 18.9467 18.6629 20.6656 19.6865 22.7629C19.6988 22.7878 19.713 22.8117 19.7291 22.8345C20.1452 23.4244 21.1722 25.3158 20.4573 26.2372C20.1192 26.6729 19.3809 26.9223 18.3219 26.9589H13.7158C12.6567 26.9223 11.9184 26.6729 11.5803 26.2372C11.1576 25.6923 11.3515 24.8353 11.5885 24.2121C11.8774 23.4527 12.3047 22.8402 12.3087 22.8345C12.3248 22.8119 12.339 22.7878 12.3511 22.7629C13.0673 21.2959 12.7826 20.0147 12.3133 19.1659C13.2492 18.9218 14.1222 18.1836 14.8792 16.9823C15.5393 15.9347 15.8854 14.893 16.0327 14.3653C16.306 13.3874 16.3299 12.714 16.1036 12.3638C15.9568 12.1368 15.7119 12.0232 15.4491 12.0601C14.8501 12.1436 14.7296 11.9617 14.5274 10.6667C14.4177 9.9628 14.2931 9.16481 13.8732 8.46107C13.3863 7.6453 12.3628 7.10268 10.8309 6.84817C10.0069 6.71138 9.26427 6.69772 8.94457 6.69928C7.38078 5.71298 6.38637 4.40869 5.99137 2.81871C5.90696 2.47908 5.85985 2.16052 5.83579 1.87697C7.47544 3.19052 10.4309 3.97781 10.8427 4.08286C10.9878 4.12001 11.1419 4.09268 11.2658 4.00813C11.7941 3.64587 12.4178 3.46239 13.1189 3.46239C14.28 3.46239 15.3413 3.95675 15.7442 4.16956L15.7744 4.18549C15.9278 4.26706 16.1117 4.26677 16.2646 4.18478L16.2939 4.16927C16.6963 3.95675 17.7576 3.46239 18.9189 3.46239C19.6199 3.46239 20.2435 3.64587 20.772 4.00813C20.8957 4.09268 21.05 4.12001 21.1949 4.08286C21.6067 3.97781 24.5622 3.19052 26.2019 1.87697C26.1778 2.16066 26.1307 2.47908 26.0463 2.81871C25.6409 4.45053 24.6059 5.78259 22.9701 6.77757C22.8081 6.87607 22.7126 7.05471 22.7204 7.24403C22.7284 7.4332 22.8384 7.6033 23.008 7.688C23.0168 7.69227 23.8828 8.1519 23.8011 8.70817C23.7762 8.87742 23.836 9.04795 23.9611 9.16467C24.0861 9.28125 24.2603 9.32893 24.4276 9.29235C24.4454 9.28837 26.2312 8.90148 28.0714 8.90148C29.0973 8.90148 29.9432 9.02318 30.5665 9.25691C30.1651 9.62088 29.702 10.1486 29.5215 10.7626ZM8.7117 15.3022C8.46345 13.9991 8.69775 12.7563 8.70017 12.7446C8.73547 12.5643 8.67312 12.3788 8.53619 12.2564C8.39925 12.134 8.20794 12.0928 8.03272 12.1481C7.09695 12.4434 6.24844 12.593 5.51082 12.593C4.57562 12.593 3.82163 12.3562 3.26948 11.8887C2.76216 11.4592 2.5737 10.9581 2.5162 10.7626C2.33585 10.1486 1.87251 9.62088 1.4711 9.25691C2.09443 9.02318 2.94037 8.90148 3.96624 8.90148C5.80162 8.90148 7.59259 9.28851 7.61024 9.29235C7.77721 9.32893 7.95172 9.28125 8.0767 9.16467C8.20182 9.04795 8.26161 8.87742 8.2367 8.70817C8.17093 8.26022 8.71739 7.87646 8.93873 7.74081C9.21331 7.73938 9.91493 7.74992 10.6765 7.87789C11.8663 8.07788 12.6626 8.46391 12.9792 8.99457C13.2956 9.52494 13.3989 10.187 13.4988 10.8272C13.5911 11.418 13.6781 11.976 13.9371 12.4047C14.2181 12.8697 14.6484 13.108 15.2191 13.116C15.1759 13.8526 14.6087 15.8211 13.4671 17.155C12.7998 17.935 12.1049 18.2858 11.4018 18.2016C9.9266 17.9017 9.0213 16.9267 8.7117 15.3022ZM31.8261 8.75544C31.0213 8.16158 29.758 7.86037 28.0714 7.86037C26.751 7.86037 25.4829 8.04258 24.7766 8.1657C24.6623 7.79675 24.4236 7.48246 24.1587 7.2362C26.0393 5.86857 26.7815 4.21596 27.0696 3.017C27.4171 1.57079 27.1969 0.46221 27.1873 0.415806C27.1415 0.192469 26.9557 0.0250759 26.729 0.00258636C26.5019 -0.0199032 26.287 0.107637 26.1982 0.317451C25.7294 1.42417 22.9466 2.52862 21.1544 3.01686C20.497 2.62143 19.7462 2.42129 18.9189 2.42129C17.6983 2.42129 16.5914 2.86483 16.0188 3.14212C15.4458 2.86469 14.3391 2.42129 13.1189 2.42129C12.2915 2.42129 11.5406 2.62156 10.8831 3.017C9.09147 2.52961 6.30894 1.42588 5.83949 0.317451C5.75066 0.107637 5.53487 -0.0200462 5.30883 0.00258636C5.08194 0.0250759 4.89618 0.192469 4.85035 0.415806C4.84081 0.462353 4.6206 1.57079 4.9682 3.017C5.25616 4.21596 5.99849 5.86857 7.87899 7.2362C7.61423 7.48246 7.37552 7.79675 7.26107 8.1657C6.55476 8.04258 5.28662 7.86037 3.96624 7.86037C2.27962 7.86037 1.01632 8.16158 0.21151 8.75544C0.0737213 8.85707 -0.00527711 9.02005 0.00027429 9.19115C0.00582569 9.36225 0.095211 9.51982 0.239263 9.6122C0.512278 9.78757 1.33318 10.4292 1.51751 11.0563C1.64406 11.4867 2.4315 13.6341 5.51082 13.6341C6.14254 13.6341 6.83603 13.5412 7.57964 13.3571C7.54049 13.9034 7.5348 14.6671 7.68341 15.4669C8.05877 17.4868 9.2247 18.7719 11.0595 19.1933C11.1752 19.323 11.3855 19.5892 11.5439 19.9657C11.8511 20.6958 11.8134 21.4716 11.4322 22.272C11.1875 22.6309 9.49174 25.2437 10.7579 26.8755C11.3005 27.5745 12.2868 27.9529 13.6896 27.9997L13.707 28H18.3307L18.3481 27.9997C19.751 27.9529 20.7374 27.5745 21.2798 26.8755C22.5459 25.2437 20.8502 22.6309 20.6056 22.272C20.231 21.4855 20.1883 20.7224 20.4785 20.0029C20.6374 19.6093 20.859 19.3279 20.979 19.1932C22.8134 18.7716 23.979 17.4866 24.3544 15.4669C24.503 14.6671 24.4973 13.9034 24.4582 13.3571C25.2018 13.5412 25.8951 13.6341 26.5268 13.6341H26.527C29.606 13.6341 30.3936 11.4867 30.5201 11.0563C30.7041 10.431 31.5057 9.80152 31.7984 9.6122C31.9424 9.51982 32.0318 9.36225 32.0374 9.19115C32.0429 9.02005 31.9639 8.85707 31.8261 8.75544Z" fill="#06030E"/>
<path d="M12.2776 14.6055C12.7637 14.6055 13.1577 14.2115 13.1577 13.7254C13.1577 13.2393 12.7637 12.8451 12.2776 12.8451C11.7915 12.8451 11.3975 13.2393 11.3975 13.7254C11.3975 14.2115 11.7915 14.6055 12.2776 14.6055Z" fill="#06030E"/>
<path d="M19.761 12.8451C19.2749 12.8451 18.8809 13.2393 18.8809 13.7254C18.8809 14.2115 19.2749 14.6055 19.761 14.6055C20.2471 14.6055 20.6412 14.2115 20.6412 13.7254C20.6412 13.2393 20.2471 12.8451 19.761 12.8451Z" fill="#06030E"/>
<path d="M15.9861 22.6394C14.4267 22.6394 13.1626 23.4636 13.1626 25.2288C13.1626 25.8328 14.4267 25.7343 15.9861 25.7343C17.5456 25.7343 18.8098 25.8328 18.8098 25.2288C18.8098 23.4852 17.5456 22.6394 15.9861 22.6394Z" fill="#06030E"/>
</svg>
