<svg width="28" height="28" viewBox="0 0 28 28" fill="none" xmlns="http://www.w3.org/2000/svg">
<path d="M13.9999 26.9226C8.35242 26.9226 3.0841 23.3899 1.11414 18.3073C3.08404 13.2247 8.35236 9.69209 13.9999 9.69209C19.6474 9.69209 24.9158 13.2247 26.8857 18.3073C24.9158 23.3899 19.6474 26.9226 13.9999 26.9226ZM19.3845 4.84604C19.3845 4.54849 19.6256 4.30734 19.923 4.30734H20.9998V3.2305C20.9998 2.93353 21.241 2.69237 21.5383 2.69237H23.1537C23.4511 2.69237 23.6922 2.93353 23.6922 3.2305V4.30734H24.7691C25.0664 4.30734 25.3075 4.54849 25.3075 4.84604V6.46158C25.3075 6.75856 25.0664 6.99971 24.7691 6.99971H23.6922V8.07655C23.6922 8.3741 23.4511 8.61525 23.1537 8.61525H21.5383C21.241 8.61525 20.9998 8.3741 20.9998 8.07655V6.99971H19.923C19.6256 6.99971 19.3845 6.75856 19.3845 6.46158V4.84604ZM22.5842 11.3024C25.5917 11.177 27.9998 8.69122 27.9998 5.65352C27.9998 2.5364 25.4636 0 22.346 0C19.2284 0 16.6922 2.5364 16.6922 5.65352C16.6922 6.9623 17.1391 8.16806 17.888 9.12691C16.6265 8.78849 15.3219 8.61525 13.9999 8.61525C10.9494 8.61525 7.99069 9.53784 5.44364 11.2829C2.95207 12.9894 1.03063 15.4181 0.0332806 18.1209C-0.0110935 18.2412 -0.0110935 18.3735 0.0332806 18.4938C1.03063 21.1971 2.95207 23.6253 5.44364 25.3324C7.99069 27.0774 10.9494 28 13.9999 28C17.0504 28 20.0091 27.0774 22.5562 25.3324C25.0478 23.6253 26.9692 21.1971 27.9666 18.4938C28.011 18.3735 28.011 18.2412 27.9666 18.1209C26.973 15.4285 25.0621 13.0083 22.5842 11.3024Z" fill="#84A17D"/>
<path d="M22.0763 6.46223V7.53906H22.6148V6.46223C22.6148 6.16468 22.8559 5.92352 23.1533 5.92352H24.2301V5.3854H23.1533C22.8559 5.3854 22.6148 5.14424 22.6148 4.84669V3.76985H22.0763V4.84669C22.0763 5.14424 21.8352 5.3854 21.5378 5.3854H20.4609V5.92352H21.5378C21.8352 5.92352 22.0763 6.16468 22.0763 6.46223Z" fill="#84A17D"/>
<path d="M14.0002 19.3848C13.4064 19.3848 12.9233 19.8683 12.9233 20.4622C12.9233 21.0556 13.4064 21.5391 14.0002 21.5391C14.5941 21.5391 15.0772 21.0556 15.0772 20.4622C15.0772 19.8683 14.5941 19.3848 14.0002 19.3848Z" fill="#84A17D"/>
<path d="M14.1107 22.6124C14.074 22.6141 14.0371 22.6152 13.9999 22.6152C13.9628 22.6152 13.9259 22.6141 13.8893 22.6124C11.5651 22.5531 9.69232 20.6457 9.69232 18.3073C9.69232 15.9321 11.6247 14 13.9999 14C16.3752 14 18.3076 15.9321 18.3076 18.3073C18.3076 20.6457 16.4348 22.5531 14.1107 22.6124ZM13.9999 11.3076C10.1401 11.3076 7 14.4478 7 18.3073C7 22.1675 10.1401 25.3076 13.9999 25.3076C17.8597 25.3076 20.9999 22.1675 20.9999 18.3073C20.9999 14.4478 17.8597 11.3076 13.9999 11.3076Z" fill="#84A17D"/>
<path d="M13.9988 15.0769C12.2174 15.0769 10.7681 16.5261 10.7681 18.3074C10.7681 19.2703 11.1918 20.1353 11.8621 20.7275C11.8512 20.6406 11.845 20.5514 11.845 20.4616C11.845 19.2737 12.8112 18.3074 13.9988 18.3074C15.1864 18.3074 16.1526 19.2737 16.1526 20.4616C16.1526 20.5514 16.1464 20.6406 16.1356 20.7275C16.8058 20.1353 17.2296 19.2703 17.2296 18.3074C17.2296 16.5261 15.7802 15.0769 13.9988 15.0769Z" fill="#84A17D"/>
<path d="M5.92396 6.46254C6.22088 6.46254 6.46244 6.70369 6.46244 7.00067C6.46244 7.29765 6.22088 7.53938 5.92396 7.53938C5.6271 7.53938 5.38554 7.29765 5.38554 7.00067C5.38554 6.70369 5.6271 6.46254 5.92396 6.46254ZM5.92396 8.61621C6.81472 8.61621 7.53938 7.89161 7.53938 7.00067C7.53938 6.11031 6.81472 5.38571 5.92396 5.38571C5.03326 5.38571 4.30859 6.11031 4.30859 7.00067C4.30859 7.89161 5.03326 8.61621 5.92396 8.61621Z" fill="#84A17D"/>
<path d="M2.15384 2.69235C2.74763 2.69235 3.23073 3.17522 3.23073 3.76918C3.23073 4.36314 2.74763 4.84602 2.15384 4.84602C1.56 4.84602 1.07689 4.36314 1.07689 3.76918C1.07689 3.17522 1.56 2.69235 2.15384 2.69235ZM2.15384 5.92285C3.34141 5.92285 4.30763 4.95652 4.30763 3.76918C4.30763 2.58127 3.34141 1.61551 2.15384 1.61551C0.966158 1.61551 0 2.58127 0 3.76918C0 4.95652 0.966158 5.92285 2.15384 5.92285Z" fill="#84A17D"/>
</svg>
