<svg width="42" height="36" viewBox="0 0 42 36" fill="none" xmlns="http://www.w3.org/2000/svg">
<path d="M35.938 10.1424L34.6074 8.83285C34.2888 8.51823 33.7704 8.51823 33.4508 8.83285C33.1311 9.14748 33.1311 9.65662 33.4508 9.97125L34.7813 11.2808L34.0048 12.0461L32.6732 10.7365C32.3546 10.4219 31.8361 10.4219 31.5165 10.7365C31.1979 11.0501 31.1979 11.5603 31.5165 11.8749L32.8481 13.1844L32.0705 13.9497L30.74 12.6392C30.4203 12.3256 29.9019 12.3256 29.5833 12.6392C29.2636 12.9538 29.2636 13.464 29.5833 13.7776L30.9138 15.0881L29.8554 16.1298L25.6111 11.9525L32.7531 4.92344L36.9975 9.10071L35.938 10.1424ZM28.6232 21.2818V22.5838C28.6232 25.6365 27.1252 28.5872 24.4047 30.8916C21.7814 33.1152 18.3999 34.3907 15.1286 34.3907C11.8584 34.3907 8.4769 33.1152 5.85358 30.8916C3.13307 28.5872 1.63512 25.6365 1.63512 22.5838V21.2818C1.63512 20.881 1.96668 20.5547 2.37384 20.5547H6.03178C6.0091 20.8321 5.99614 21.1128 5.99614 21.3912C5.99614 22.2426 6.10307 23.0866 6.30611 23.8912C6.31151 23.9189 6.32015 23.9454 6.32771 23.972C6.57719 24.9244 6.96058 25.8204 7.46818 26.608C7.74358 27.0375 8.2069 27.283 8.7037 27.2819C8.81278 27.2819 8.92402 27.2702 9.03418 27.2458C9.65301 27.1097 10.1034 26.6229 10.1811 26.0043C10.436 23.9996 11.1132 20.6366 12.7839 20.6344C12.7839 20.6344 12.785 20.6344 12.7861 20.6344C14.0562 20.6344 14.9299 22.4414 15.3824 26.0043C15.4612 26.6219 15.9116 27.1097 16.5294 27.2458C17.1439 27.3808 17.7595 27.131 18.0964 26.608C18.6051 25.8194 18.9896 24.9201 19.238 23.9656C19.2445 23.9422 19.252 23.9178 19.2574 23.8934C19.4605 23.0877 19.5674 22.2437 19.5674 21.3912C19.5674 21.1128 19.5544 20.8321 19.5328 20.5547H21.8019C21.8419 20.5611 21.8818 20.5664 21.9218 20.5664C21.9618 20.5664 22.0017 20.5611 22.0417 20.5547H27.8845C28.2916 20.5547 28.6232 20.881 28.6232 21.2818ZM17.6331 23.6372C17.4679 24.2484 17.24 24.8298 16.9462 25.3591C16.5466 22.5137 15.6448 19.0241 12.7872 19.0241C12.785 19.0241 12.7829 19.0241 12.7807 19.0241C9.68002 19.0294 8.88838 23.3683 8.6173 25.357C8.32354 24.8277 8.09567 24.2473 7.93043 23.6372C7.99091 21.1149 10.0785 17.3405 12.8401 17.3405C15.5822 17.3405 17.5769 21.0596 17.6331 23.6372ZM6.44758 12.1088C7.16902 11.3987 8.50282 11.3201 10.1077 11.8941C10.7384 12.1194 11.3929 12.2618 12.0538 12.3214C11.8281 12.6657 11.6445 13.0633 11.5214 13.5352C11.408 13.9657 11.6715 14.4047 12.11 14.5152C12.1781 14.5322 12.2461 14.5407 12.3141 14.5407C12.6781 14.5407 13.0107 14.2995 13.1058 13.9359C13.3801 12.8858 14.0238 12.3649 15.7572 11.7931C15.7582 11.7931 15.7582 11.792 15.7593 11.792C17.2281 11.3328 18.442 11.4434 19.117 12.1088C20.0642 13.041 19.8892 15.0042 18.671 17.1109C18.2995 17.7529 18.0575 18.4491 17.9463 19.1687C17.8264 18.9635 17.699 18.7637 17.5651 18.5703C16.2982 16.7388 14.6199 15.7312 12.8401 15.7312C10.5915 15.7312 8.77713 17.3054 7.63233 19.2505C7.52757 18.5012 7.27809 17.7763 6.89253 17.1087C5.67538 15.0031 5.50043 13.0399 6.44758 12.1088ZM41.7602 5.98104L35.9229 0.23597C35.6032 -0.0786552 35.0848 -0.0786552 34.7662 0.23597C34.4465 0.550591 34.4465 1.05973 34.7662 1.37435L37.1065 3.6777L35.4531 5.30503L33.8698 3.74573C33.2542 3.13987 32.252 3.13987 31.6364 3.74573L24.4144 10.8535C24.1163 11.1468 23.9522 11.5369 23.9522 11.9525C23.9522 12.3681 24.1163 12.7582 24.4144 13.0516L25.9988 14.6109L21.5945 18.9444H19.6635C19.7607 18.5851 19.9022 18.2365 20.0923 17.9081C21.7101 15.1105 21.7792 12.4521 20.2737 10.9704C19.1473 9.86176 17.3296 9.61198 15.2485 10.2635C15.2452 10.2657 15.2409 10.2657 15.2366 10.2667C15.1696 10.2891 15.1005 10.3124 15.0325 10.3358C14.9871 10.3507 14.9439 10.3635 14.8986 10.3805C13.5345 10.8673 12.0312 10.8683 10.666 10.3805C8.43909 9.58434 6.47999 9.79905 5.29091 10.9693C3.78539 12.451 3.85451 15.1083 5.47126 17.9049C5.66134 18.2344 5.80283 18.5841 5.90111 18.9444H2.37384C1.06489 18.9444 0 19.9935 0 21.2818V22.5838C0 26.1127 1.69991 29.496 4.78546 32.1118C7.70254 34.5831 11.4717 36 15.1286 36C18.7866 36 22.5557 34.5831 25.4728 32.1118C28.5584 29.496 30.2583 26.1127 30.2583 22.5838V21.2818C30.2583 19.9935 29.1934 18.9444 27.8845 18.9444H23.9079L27.1555 15.7493L28.7387 17.3075C29.0368 17.6009 29.4332 17.7624 29.8554 17.7624C30.2777 17.7624 30.6741 17.6009 30.9722 17.3075L32.6494 15.6568L38.1941 10.1998C38.4922 9.90641 38.6563 9.51631 38.6563 9.10071C38.6563 8.68617 38.4922 8.29502 38.1941 8.00165L36.6098 6.44341L38.2632 4.81609L40.6036 7.11943C40.7634 7.27674 40.9729 7.3554 41.1814 7.3554C41.3909 7.3554 41.6004 7.27674 41.7602 7.11943C42.0799 6.80586 42.0799 6.29567 41.7602 5.98104Z" fill="white"/>
</svg>
