<svg width="38" height="32" viewBox="0 0 38 32" fill="none" xmlns="http://www.w3.org/2000/svg">
<path d="M36.2343 11.2204H35.2056V10.0041C35.2056 9.77349 35.2899 9.55225 35.4438 9.38087L35.526 9.28739C35.6883 9.10666 35.8755 9.14093 35.9733 9.17833C36.071 9.21572 36.2343 9.31439 36.2343 9.5564V11.2204ZM33.4394 12.5977H31.4319V10.646C31.4319 10.2596 31.5744 9.88774 31.8313 9.59899L31.9436 9.47331C32.3077 9.0651 32.7581 9.1939 32.8881 9.24376C33.0171 9.29258 33.4394 9.49512 33.4394 10.0425V11.8363V12.5977ZM29.6667 14.2284H26.3194V11.2702C26.3194 10.6699 26.5389 10.0924 26.9394 9.64469L27.0912 9.47331C27.5895 8.91553 28.2583 8.90307 28.717 9.07757C29.1758 9.25207 29.6667 9.70493 29.6667 10.4528V10.646V13.1201V14.2284ZM24.4097 16.043H20.5142C20.1658 16.043 19.8829 15.7604 19.8829 15.4135V12.2009C19.8829 11.4125 20.172 10.6533 20.6973 10.0643L20.8856 9.8545C21.3287 9.35697 21.8706 9.17625 22.3689 9.17625C22.6362 9.17625 22.89 9.22818 23.1095 9.31231C23.7377 9.55017 24.4097 10.1713 24.4097 11.1944V16.043ZM17.4863 16.043H13.5909V11.1944C13.5909 10.1713 14.2628 9.55017 14.8911 9.31231C15.5193 9.07341 16.4337 9.09003 17.115 9.8545L17.3022 10.0643C17.8275 10.6533 18.1177 11.4125 18.1177 12.2009V15.4135C18.1177 15.7604 17.8337 16.043 17.4863 16.043ZM11.6811 14.2284H8.33384V10.4528C8.33384 9.70493 8.82481 9.25207 9.28352 9.07757C9.74224 8.90307 10.4111 8.9145 10.9093 9.47435L11.0612 9.64469C11.4616 10.0924 11.6811 10.6699 11.6811 11.2702V14.2284ZM4.56115 12.5977V10.0425C4.56115 9.49512 4.98346 9.29258 5.11244 9.24376C5.24142 9.1939 5.69286 9.0651 6.05692 9.47331L6.16925 9.59899C6.42617 9.88774 6.56764 10.2596 6.56764 10.646V12.5977H4.56115ZM1.76622 11.2204V9.5564C1.76622 9.31439 1.92952 9.21572 2.0273 9.17833C2.12403 9.14093 2.31231 9.10666 2.47353 9.28739L2.55675 9.38087C2.71069 9.55225 2.79493 9.77349 2.79493 10.0041V10.0425V11.2204H1.76622ZM2.86671 5.10046L4.34999 4.52296C13.7968 0.844986 24.2027 0.844986 33.6506 4.52296L35.1338 5.10046C35.8027 5.36117 36.2343 5.99269 36.2343 6.70938V7.4271C35.5239 7.29 34.7937 7.51332 34.2778 8.042C34.0552 7.85608 33.8003 7.70339 33.5164 7.59537C32.4897 7.20483 31.3549 7.48216 30.6247 8.30064L30.6195 8.30583C30.2814 7.92568 29.8498 7.62134 29.3453 7.42918C28.0773 6.94724 26.6752 7.28897 25.7723 8.30064L25.6204 8.47098C25.5206 8.58316 25.4291 8.70053 25.3427 8.82102C24.9319 8.3131 24.3858 7.91009 23.7377 7.66392C22.2576 7.10096 20.6203 7.49981 19.5666 8.68183L19.3794 8.89164C19.2421 9.04537 19.1163 9.2074 18.9998 9.37463C18.8843 9.2074 18.7584 9.04537 18.6211 8.89164L18.4339 8.68183C17.3802 7.49981 15.7419 7.09992 14.2618 7.66392C13.6148 7.91009 13.0677 8.3131 12.6578 8.82102C12.5705 8.70053 12.48 8.58316 12.3801 8.47098L12.2282 8.30064C11.3254 7.28897 9.92322 6.9462 8.65526 7.42918C8.15077 7.62134 7.71911 7.92568 7.38001 8.30583L7.37585 8.30064C6.64565 7.48216 5.51082 7.20483 4.48417 7.59537C4.20021 7.70339 3.94537 7.85608 3.72277 8.042C3.20685 7.51332 2.47665 7.29 1.76622 7.4271V6.70938C1.76622 5.99269 2.19788 5.36117 2.86671 5.10046ZM35.7746 3.45726L34.2913 2.8808C24.4315 -0.959209 13.5701 -0.959209 3.70821 2.8808L2.22493 3.45726C0.873748 3.98387 0 5.26042 0 6.70938V9.5564V11.8363C0 12.4699 0.514885 12.984 1.14939 12.984H2.79493V13.1201C2.79493 13.8046 3.35246 14.3603 4.03793 14.3603H6.56764V14.6231C6.56764 15.3772 7.18237 15.991 7.93857 15.991H11.8247V16.3265C11.8247 17.1429 12.4904 17.8066 13.3079 17.8066H17.4863C18.0605 17.8066 18.5868 17.6041 18.9998 17.2665C19.4137 17.6041 19.9401 17.8066 20.5142 17.8066H24.6926C25.5102 17.8066 26.1749 17.1429 26.1749 16.3265V15.991H30.062C30.8171 15.991 31.4319 15.3772 31.4319 14.6231V14.3603H33.9626C34.6481 14.3603 35.2056 13.8046 35.2056 13.1201V12.984H36.8512C37.4846 12.984 38.0006 12.4699 38.0006 11.8363V9.5564V6.70938C38.0006 5.26042 37.1268 3.98387 35.7746 3.45726Z" fill="white"/>
<path d="M32.9408 27.8235L31.6593 28.2421C23.496 30.9021 14.5058 30.9021 6.34253 28.2421L5.06105 27.8235C4.56593 27.6625 4.23308 27.2927 4.23308 26.9042V23.46C4.31421 23.4693 4.39535 23.4755 4.47648 23.4755C4.62419 23.4755 4.77085 23.4579 4.91439 23.4278C5.03297 24.1185 5.51248 24.7095 6.22604 25.018C6.56306 25.1634 6.92191 25.234 7.27661 25.234C7.59386 25.234 7.908 25.1769 8.20029 25.0668C8.36672 25.8624 8.93881 26.5428 9.77719 26.9053C10.1943 27.085 10.6384 27.1732 11.0774 27.1732C11.7275 27.1732 12.3651 26.978 12.8873 26.6103C13.2045 27.5555 13.9046 28.3293 14.8699 28.7468C15.3421 28.9504 15.8341 29.0501 16.3188 29.0501C17.2103 29.0501 18.0798 28.7126 18.7695 28.0655C18.8485 27.9917 18.9224 27.9128 18.9931 27.8328C19.0649 27.9128 19.1387 27.9917 19.2178 28.0655C19.9074 28.7136 20.777 29.0501 21.6684 29.0501C22.1531 29.0501 22.6451 28.9504 23.1174 28.7468C24.0827 28.3293 24.7827 27.5555 25.0999 26.6103C25.6221 26.978 26.2597 27.1732 26.9098 27.1732C27.3488 27.1732 27.7929 27.085 28.21 26.9053C29.0484 26.5428 29.6205 25.8624 29.7869 25.0668C30.0792 25.1769 30.3934 25.234 30.7117 25.234C31.0664 25.234 31.4242 25.1634 31.7612 25.018C32.4748 24.7095 32.9543 24.1185 33.0728 23.4278C33.2164 23.4579 33.3631 23.4755 33.5108 23.4755C33.596 23.4755 33.6824 23.4683 33.7677 23.4579V26.9042C33.7677 27.2927 33.4359 27.6625 32.9408 27.8235ZM4.23308 20.694H4.88526V21.3327C4.88526 21.4106 4.84262 21.4937 4.76356 21.5665L4.69282 21.634C4.60753 21.7139 4.48167 21.7108 4.43175 21.7067C4.32877 21.6963 4.26012 21.6568 4.23308 21.634V21.018V20.694ZM8.14932 21.5633V22.656C8.14932 22.8471 8.05675 23.0383 7.88928 23.1961L7.7915 23.2875C7.5481 23.5161 7.17364 23.5057 6.92712 23.3997C6.84391 23.3634 6.65147 23.2616 6.65147 23.0933V21.4854H8.14932V21.5633ZM9.91552 22.656V22.0931H12.5721V23.9918C12.5721 24.3377 12.4119 24.6783 12.1207 24.9525L11.9886 25.0751C11.5559 25.4823 10.9027 25.4698 10.4783 25.287C10.3087 25.2133 9.91552 24.9993 9.91552 24.5838V22.656ZM14.4621 22.9489H18.0819V25.4428C18.0819 25.5675 18.0881 25.69 18.1017 25.8126C18.0247 26.1803 17.8375 26.521 17.5597 26.7806C17.0084 27.2979 16.2647 27.4277 15.5709 27.1286C14.8771 26.8284 14.4621 26.199 14.4621 25.4428V22.9489ZM23.5251 22.9489V25.4428C23.5251 26.199 23.1101 26.8284 22.4163 27.1286C21.7215 27.4277 20.9788 27.2979 20.4275 26.7806C20.1498 26.521 19.9625 26.1803 19.8856 25.8126C19.8991 25.69 19.9053 25.5675 19.9053 25.4428V22.9489H23.5251ZM25.4151 22.0931H28.0717V24.5838C28.0717 24.9993 27.6785 25.2133 27.509 25.287C27.0846 25.4698 26.4314 25.4823 25.9986 25.0761L25.8665 24.9525C25.5753 24.6783 25.4151 24.3377 25.4151 23.9918V22.0931ZM29.8379 21.4854H31.3358V23.0933C31.3358 23.2616 31.1433 23.3634 31.0601 23.3997C30.8146 23.5057 30.4391 23.516 30.1947 23.2865L30.099 23.1961C29.9305 23.0383 29.8379 22.8471 29.8379 22.656V21.5633V21.4854ZM33.102 20.694H33.7542V21.634C33.7271 21.6568 33.6585 21.6963 33.5555 21.7067C33.5056 21.7108 33.3797 21.7139 33.2954 21.635L33.2226 21.5665C33.1446 21.4937 33.102 21.4106 33.102 21.3327V20.8643V20.694ZM35.5193 20.0053C35.5193 19.4133 35.02 18.9313 34.4063 18.9313H32.4498C31.937 18.9313 31.5053 19.2668 31.3763 19.7217H29.2658C28.8092 19.7217 28.4129 19.969 28.2121 20.3294H24.9533C24.3739 20.3294 23.8809 20.6898 23.7123 21.1863H19.9053H18.0819H14.2749C14.1064 20.6898 13.6133 20.3294 13.034 20.3294H9.77509C9.57434 19.969 9.17805 19.7217 8.72141 19.7217H6.6109C6.48192 19.2668 6.05026 18.9313 5.53746 18.9313H3.58088C2.96718 18.9313 2.4679 19.4133 2.4679 20.0053V21.018V21.6568V26.9042C2.4679 28.0582 3.28965 29.101 4.51289 29.4999L5.79437 29.9174C10.0528 31.3062 14.5266 32 19.0004 32C23.4752 32 27.949 31.3062 32.2074 29.9174L33.4889 29.4999C34.7122 29.101 35.5339 28.0582 35.5339 26.9042V21.018C35.5339 20.9692 35.5276 20.9225 35.5193 20.8757V20.0053Z" fill="white"/>
</svg>
