<svg width="46" height="36" viewBox="0 0 46 36" fill="none" xmlns="http://www.w3.org/2000/svg">
<path d="M22.349 23.7429C21.6307 25.0194 21.3191 26.4725 21.4447 27.9444C21.4726 28.2671 21.4865 28.5968 21.4865 28.9241C21.4865 30.8965 20.9704 32.8171 20.0277 34.3432C19.5907 30.8294 18.6085 26.1875 15.1585 26.1875C15.1562 26.1875 15.1538 26.1875 15.1515 26.1875C12.5931 26.1911 10.9541 28.9336 10.2788 34.3432C9.33725 32.8206 8.81883 30.8989 8.81883 28.9241C8.81883 28.5968 8.83278 28.2671 8.86068 27.9444C8.98738 26.4725 8.6747 25.0182 7.95751 23.7394C6.46152 21.0758 6.26391 18.5759 7.45303 17.3701C7.96681 16.8496 8.71772 16.587 9.63019 16.587C10.3392 16.587 11.1459 16.746 12.0131 17.0651C12.85 17.3724 13.7218 17.5514 14.5994 17.6044C14.2576 18.0648 13.9856 18.6194 13.8136 19.2965C13.7032 19.731 13.9624 20.175 14.3925 20.2868C14.4587 20.3045 14.5261 20.3128 14.5924 20.3128C14.9504 20.3128 15.277 20.069 15.37 19.7016C15.7548 18.1873 16.8219 17.5632 18.6561 16.9391C18.6573 16.9391 18.6573 16.9391 18.6584 16.9379C20.4822 16.3515 21.9968 16.5034 22.8535 17.3701C24.0438 18.5759 23.845 21.077 22.349 23.7429ZM18.1574 15.393C18.154 15.3941 18.1493 15.3942 18.1447 15.3953C18.054 15.4271 17.9633 15.4589 17.8715 15.4907C17.8297 15.506 17.7878 15.5178 17.7448 15.5343C16.0745 16.149 14.2332 16.149 12.5617 15.5343C9.96611 14.5793 7.68899 14.8289 6.31621 16.2184C4.57379 17.9836 4.66795 21.1747 6.56031 24.5449C7.11593 25.534 7.35772 26.6609 7.26008 27.8031C7.22753 28.1729 7.21243 28.5508 7.21243 28.9241C7.21243 31.2192 7.82733 33.4671 8.94438 35.2523C9.24195 35.728 9.74062 36 10.2753 36C10.3939 36 10.5124 35.987 10.6322 35.96C11.2994 35.8081 11.7841 35.2676 11.8689 34.5811C12.5594 28.9924 14.0368 27.8172 15.1538 27.8149C15.155 27.8149 15.1562 27.8149 15.1573 27.8149C16.7789 27.8149 17.8831 30.0923 18.4376 34.5811C18.5213 35.2676 19.0072 35.8081 19.6732 35.96C20.3369 36.1095 20.9995 35.8316 21.3621 35.2523C22.4792 33.4671 23.0941 31.2192 23.0941 28.9241C23.0941 28.5497 23.0778 28.1729 23.0464 27.8031C22.9488 26.6621 23.1906 25.5363 23.745 24.5472C25.6386 21.1759 25.7327 17.9847 23.9891 16.2184C22.6907 14.9031 20.581 14.6111 18.1574 15.393Z" fill="white"/>
<path d="M44.217 22.9948L43.5951 23.8909C43.4371 24.1194 43.1999 24.2642 42.9279 24.3007C42.6571 24.3372 42.3897 24.2595 42.1782 24.0805L42.1387 24.0464L32.5688 17.8854C32.0585 17.5569 31.6214 17.1377 31.2692 16.6384L24.1322 6.52333C23.9508 6.26545 23.6556 6.11236 23.344 6.11236C23.3429 6.11236 23.3417 6.11236 23.3406 6.11236C23.0279 6.11354 22.7326 6.26898 22.5525 6.52922L22.2398 6.97903L20.4335 5.69316C20.4323 5.69198 20.4311 5.6908 20.43 5.68962C20.4288 5.68844 20.4265 5.68845 20.4253 5.68727L18.6201 4.40138L19.8499 2.62918C20.5683 1.59411 21.9608 1.31505 22.9558 2.00745C23.451 2.35247 23.78 2.87175 23.8822 3.47112C23.9218 3.70545 23.9264 3.94214 23.8927 4.17647C23.7881 4.92068 24.0171 5.67314 24.5216 6.24072L32.1096 14.7708C32.599 15.3196 33.1732 15.7753 33.8171 16.1238L44.0217 21.6548C44.4251 21.9751 44.5146 22.5662 44.217 22.9948ZM44.9191 20.3018L44.8772 20.2723L34.575 14.6884C34.0961 14.4282 33.6684 14.089 33.3034 13.6804L25.7153 5.15029C25.5305 4.94305 25.4468 4.67222 25.484 4.40727C25.541 4.00337 25.5351 3.59359 25.4654 3.19205C25.2887 2.15817 24.7215 1.26205 23.866 0.666218C22.1491 -0.530169 19.7569 -0.0685787 18.5353 1.69303L17.123 3.72783C16.7138 4.31778 16.8545 5.13499 17.4368 5.54949L18.848 6.55394L18.2145 7.46654L15.6142 5.61425C15.2515 5.35637 14.7494 5.44469 14.4948 5.81209C14.2391 6.18066 14.3263 6.68819 14.6901 6.94725L21.2064 11.5868C21.3471 11.6869 21.5086 11.7351 21.6679 11.7351C21.9201 11.7351 22.17 11.6138 22.3258 11.3889C22.5815 11.0215 22.4932 10.5128 22.1305 10.255L19.5303 8.40269L20.1626 7.49009L21.5749 8.49572C22.1456 8.90197 22.9314 8.77362 23.3487 8.21311L29.9615 17.5852C30.4346 18.2552 31.0216 18.8181 31.7074 19.2596L41.1925 25.3664C41.6505 25.7373 42.2212 25.9375 42.8036 25.9375C42.9152 25.9375 43.0267 25.9293 43.1372 25.9151C43.8509 25.8197 44.4972 25.4229 44.9098 24.8271L45.5317 23.931C46.3442 22.7605 46.0699 21.1331 44.9191 20.3018Z" fill="white"/>
<path d="M7.97074 10.7019C8.12533 10.8491 8.32177 10.9209 8.51822 10.9209C8.73326 10.9209 8.94829 10.835 9.10638 10.663C9.40976 10.3345 9.39232 9.81872 9.06685 9.51256L6.43058 7.01734C6.10627 6.71118 5.59713 6.72767 5.29491 7.05738C4.99153 7.38591 5.00897 7.90051 5.33328 8.20785L7.97074 10.7019Z" fill="white"/>
<path d="M10.7722 8.07171C10.8175 8.48738 11.1651 8.7959 11.5696 8.7959C11.5987 8.7959 11.6289 8.79354 11.6591 8.79118C12.0997 8.74173 12.4181 8.339 12.3693 7.89153L11.7265 2.00735C11.6777 1.55989 11.2802 1.23842 10.8384 1.28788C10.3979 1.33733 10.0794 1.73886 10.1282 2.18633L10.7722 8.07171Z" fill="white"/>
<path d="M6.68372 12.9654C6.68372 12.5168 6.32455 12.1517 5.88052 12.1517H0.803227C0.359195 12.1517 0 12.5168 0 12.9654C0 13.4152 0.359195 13.7803 0.803227 13.7803H5.88052C6.32455 13.7803 6.68372 13.4152 6.68372 12.9654Z" fill="white"/>
</svg>
