<svg width="29" height="36" viewBox="0 0 29 36" fill="none" xmlns="http://www.w3.org/2000/svg">
<path d="M15.5361 12.808V10.3845H13.4645V12.808C13.4645 13.1898 13.1553 13.4998 12.7745 13.4998H10.3574V15.577H12.7745C13.1553 15.577 13.4645 15.8871 13.4645 16.2689V18.6924H15.5361V16.2689C15.5361 15.8871 15.8454 15.577 16.2262 15.577H18.6432V13.4998H16.2262C15.8454 13.4998 15.5361 13.1898 15.5361 12.808Z" fill="#1C293F"/>
<path d="M20.0234 16.2686C20.0234 16.6512 19.7142 16.9613 19.3334 16.9613H16.9163V19.3847C16.9163 19.7666 16.6071 20.0766 16.2255 20.0766H12.7738C12.3922 20.0766 12.083 19.7666 12.083 19.3847V16.9613H9.66596C9.28513 16.9613 8.9759 16.6512 8.9759 16.2686V12.8077C8.9759 12.4251 9.28513 12.115 9.66596 12.115H12.083V9.69229C12.083 9.30971 12.3922 8.99964 12.7738 8.99964H16.2255C16.6071 8.99964 16.9163 9.30971 16.9163 9.69229V12.115H19.3334C19.7142 12.115 20.0234 12.4251 20.0234 12.8077V16.2686ZM24.8568 14.5385C24.8568 8.81168 20.2109 4.15343 14.5 4.15343C8.78844 4.15343 4.14258 8.81168 4.14258 14.5385C4.14258 20.2646 8.78844 24.9229 14.5 24.9229C20.2109 24.9229 24.8568 20.2646 24.8568 14.5385Z" fill="#1C293F"/>
<path d="M25.2029 34.6155H15.7347L17.8558 31.1538H25.2029C26.1549 31.1538 26.9291 31.9308 26.9291 32.8846C26.9291 33.8392 26.1549 34.6155 25.2029 34.6155ZM14.5007 33.985L10.3302 27.1785C10.249 27.0453 10.1257 26.9447 9.98031 26.8907C4.837 24.9977 1.38158 20.0339 1.38158 14.5387C1.38158 7.28524 7.26659 1.38454 14.5007 1.38454C21.7341 1.38454 27.6191 7.28524 27.6191 14.5387C27.6191 20.0339 24.1637 24.9977 19.0211 26.8907C18.875 26.9447 18.7518 27.0453 18.6706 27.1785L14.5007 33.985ZM3.77573 34.6155C2.82367 34.6155 2.04949 33.8392 2.04949 32.8846C2.04949 31.9308 2.82367 31.1538 3.77573 31.1538H11.1457L13.266 34.6155H3.77573ZM25.2029 29.7692H18.7038L19.723 28.105C22.3858 27.0749 24.6656 25.2967 26.3283 22.9502C28.076 20.4838 29 17.5749 29 14.5387C29 6.52157 22.4958 0 14.5007 0C6.50494 0 0 6.52157 0 14.5387C0 17.5749 0.92473 20.4838 2.67238 22.9502C4.33515 25.2967 6.61491 27.0749 9.27771 28.105L10.2969 29.7692H3.77573C2.06203 29.7692 0.668635 31.1671 0.668635 32.8846C0.668635 34.6029 2.06203 36 3.77573 36H14.4203C14.4358 36 14.4506 35.9993 14.4653 35.9978C14.4771 35.9985 14.4889 36 14.5007 36C14.5088 36 14.517 35.9993 14.5258 35.9985C14.5362 35.9993 14.5472 36 14.5576 36H25.2029C26.9158 36 28.3099 34.6029 28.3099 32.8846C28.3099 31.1671 26.9158 29.7692 25.2029 29.7692Z" fill="#1C293F"/>
</svg>
