<svg width="34" height="42" viewBox="0 0 34 42" fill="none" xmlns="http://www.w3.org/2000/svg">
<path d="M18.2152 14.9424V12.1151H15.7864V14.9424C15.7864 15.3879 15.4238 15.7497 14.9773 15.7497H12.1436V18.173H14.9773C15.4238 18.173 15.7864 18.5347 15.7864 18.9802V21.8076H18.2152V18.9802C18.2152 18.5347 18.5777 18.173 19.0242 18.173H21.858V15.7497H19.0242C18.5777 15.7497 18.2152 15.3879 18.2152 14.9424Z" fill="white"/>
<path d="M23.4754 18.9796C23.4754 19.4259 23.1128 19.7876 22.6664 19.7876H19.8326V22.615C19.8326 23.0605 19.47 23.4223 19.0227 23.4223H14.9758C14.5285 23.4223 14.1659 23.0605 14.1659 22.615V19.7876H11.3321C10.8856 19.7876 10.5231 19.4259 10.5231 18.9796V14.9418C10.5231 14.4954 10.8856 14.1337 11.3321 14.1337H14.1659V11.3072C14.1659 10.8608 14.5285 10.4991 14.9758 10.4991H19.0227C19.47 10.4991 19.8326 10.8608 19.8326 11.3072V14.1337H22.6664C23.1128 14.1337 23.4754 14.4954 23.4754 14.9418V18.9796ZM29.142 16.9611C29.142 10.2798 23.6951 4.84518 16.9997 4.84518C10.3033 4.84518 4.85645 10.2798 4.85645 16.9611C4.85645 23.6415 10.3033 29.0762 16.9997 29.0762C23.6951 29.0762 29.142 23.6415 29.142 16.9611Z" fill="white"/>
<path d="M29.5482 40.3847H18.4476L20.9344 36.3461H29.5482C30.6644 36.3461 31.572 37.2525 31.572 38.3654C31.572 39.4791 30.6644 40.3847 29.5482 40.3847ZM17.0008 39.6492L12.1112 31.7083C12.016 31.5529 11.8715 31.4355 11.7011 31.3724C5.67097 29.164 1.61978 23.3728 1.61978 16.9618C1.61978 8.49945 8.51945 1.6153 17.0008 1.6153C25.4814 1.6153 32.3811 8.49945 32.3811 16.9618C32.3811 23.3728 28.3299 29.164 22.3006 31.3724C22.1293 31.4355 21.9848 31.5529 21.8896 31.7083L17.0008 39.6492ZM4.42671 40.3847C3.31051 40.3847 2.40285 39.4791 2.40285 38.3654C2.40285 37.2525 3.31051 36.3461 4.42671 36.3461H13.0673L15.5533 40.3847H4.42671ZM29.5482 34.7308H21.9286L23.1235 32.7892C26.2454 31.5874 28.9183 29.5128 30.8677 26.7752C32.9167 23.8977 34 20.504 34 16.9618C34 7.60849 26.3743 0 17.0008 0C7.62648 0 0 7.60849 0 16.9618C0 20.504 1.08417 23.8977 3.13313 26.7752C5.08259 29.5128 7.75542 31.5874 10.8773 32.7892L12.0723 34.7308H4.42671C2.41755 34.7308 0.783917 36.3616 0.783917 38.3654C0.783917 40.37 2.41755 42 4.42671 42H16.9065C16.9247 42 16.942 41.9991 16.9593 41.9974C16.9732 41.9983 16.987 42 17.0008 42C17.0104 42 17.0199 41.9991 17.0303 41.9983C17.0424 41.9991 17.0554 42 17.0675 42H29.5482C31.5565 42 33.191 40.37 33.191 38.3654C33.191 36.3616 31.5565 34.7308 29.5482 34.7308Z" fill="white"/>
</svg>
