<svg width="34" height="42" viewBox="0 0 34 42" fill="none" xmlns="http://www.w3.org/2000/svg">
<path d="M18.2147 14.9424V12.1151H15.7859V14.9424C15.7859 15.3879 15.4234 15.7497 14.9769 15.7497H12.1431V18.173H14.9769C15.4234 18.173 15.7859 18.5347 15.7859 18.9802V21.8076H18.2147V18.9802C18.2147 18.5347 18.5773 18.173 19.0238 18.173H21.8575V15.7497H19.0238C18.5773 15.7497 18.2147 15.3879 18.2147 14.9424Z" fill="white"/>
<path d="M23.4757 18.9796C23.4757 19.4259 23.1132 19.7876 22.6667 19.7876H19.833V22.615C19.833 23.0605 19.4704 23.4223 19.023 23.4223H14.9762C14.5288 23.4223 14.1663 23.0605 14.1663 22.615V19.7876H11.3325C10.886 19.7876 10.5235 19.4259 10.5235 18.9796V14.9418C10.5235 14.4954 10.886 14.1337 11.3325 14.1337H14.1663V11.3072C14.1663 10.8608 14.5288 10.4991 14.9762 10.4991H19.023C19.4704 10.4991 19.833 10.8608 19.833 11.3072V14.1337H22.6667C23.1132 14.1337 23.4757 14.4954 23.4757 14.9418V18.9796ZM29.1424 16.9611C29.1424 10.2798 23.6955 4.84518 17 4.84518C10.3037 4.84518 4.85681 10.2798 4.85681 16.9611C4.85681 23.6415 10.3037 29.0762 17 29.0762C23.6955 29.0762 29.1424 23.6415 29.1424 16.9611Z" fill="white"/>
<path d="M29.5482 40.3847H18.4476L20.9344 36.3461H29.5482C30.6644 36.3461 31.572 37.2525 31.572 38.3654C31.572 39.4791 30.6644 40.3847 29.5482 40.3847ZM17.0008 39.6492L12.1112 31.7083C12.016 31.5529 11.8715 31.4355 11.7011 31.3724C5.67097 29.164 1.61978 23.3728 1.61978 16.9618C1.61978 8.49945 8.51945 1.6153 17.0008 1.6153C25.4814 1.6153 32.3811 8.49945 32.3811 16.9618C32.3811 23.3728 28.3299 29.164 22.3006 31.3724C22.1293 31.4355 21.9848 31.5529 21.8896 31.7083L17.0008 39.6492ZM4.42671 40.3847C3.31051 40.3847 2.40285 39.4791 2.40285 38.3654C2.40285 37.2525 3.31051 36.3461 4.42671 36.3461H13.0673L15.5533 40.3847H4.42671ZM29.5482 34.7308H21.9286L23.1235 32.7892C26.2454 31.5874 28.9183 29.5128 30.8677 26.7752C32.9167 23.8977 34 20.504 34 16.9618C34 7.60849 26.3743 0 17.0008 0C7.62648 0 0 7.60849 0 16.9618C0 20.504 1.08417 23.8977 3.13313 26.7752C5.08259 29.5128 7.75542 31.5874 10.8773 32.7892L12.0723 34.7308H4.42671C2.41755 34.7308 0.783917 36.3616 0.783917 38.3654C0.783917 40.37 2.41755 42 4.42671 42H16.9065C16.9247 42 16.942 41.9991 16.9593 41.9974C16.9732 41.9983 16.987 42 17.0008 42C17.0104 42 17.0199 41.9991 17.0303 41.9983C17.0424 41.9991 17.0554 42 17.0675 42H29.5482C31.5565 42 33.191 40.37 33.191 38.3654C33.191 36.3616 31.5565 34.7308 29.5482 34.7308Z" fill="white"/>
</svg>
