<svg width="43" height="42" viewBox="0 0 43 42" fill="none" xmlns="http://www.w3.org/2000/svg">
<path d="M23.9799 13.1758H25.6337V14.8228H23.9799V13.1758ZM23.1535 16.4697H26.461C26.9171 16.4697 27.2874 16.1009 27.2874 15.6458V12.3519C27.2874 11.8968 26.9171 11.528 26.461 11.528H23.1535C22.6965 11.528 22.3262 11.8968 22.3262 12.3519V15.6458C22.3262 16.1009 22.6965 16.4697 23.1535 16.4697Z" fill="white"/>
<path d="M31.4228 13.1758H33.0765V14.8228H31.4228V13.1758ZM30.5963 16.4697H33.9038C34.3608 16.4697 34.7302 16.1009 34.7302 15.6458V12.3519C34.7302 11.8968 34.3608 11.528 33.9038 11.528H30.5963C30.1394 11.528 29.769 11.8968 29.769 12.3519V15.6458C29.769 16.1009 30.1394 16.4697 30.5963 16.4697Z" fill="white"/>
<path d="M25.6337 21.4108H23.9799V19.7638H25.6337V21.4108ZM27.2874 22.2347V18.9408C27.2874 18.4857 26.9171 18.1169 26.461 18.1169H23.1535C22.6965 18.1169 22.3262 18.4857 22.3262 18.9408V22.2347C22.3262 22.6898 22.6965 23.0586 23.1535 23.0586H26.461C26.9171 23.0586 27.2874 22.6898 27.2874 22.2347Z" fill="white"/>
<path d="M10.7506 14.8228H9.09681V13.1758H10.7506V14.8228ZM11.5779 11.528H8.2695C7.81253 11.528 7.44307 11.8968 7.44307 12.3519V15.6458C7.44307 16.1009 7.81253 16.4697 8.2695 16.4697H11.5779C12.0339 16.4697 12.4043 16.1009 12.4043 15.6458V12.3519C12.4043 11.8968 12.0339 11.528 11.5779 11.528Z" fill="white"/>
<path d="M18.1908 14.8228H16.5371V13.1758H18.1908V14.8228ZM19.0181 11.528H15.7098C15.2537 11.528 14.8833 11.8968 14.8833 12.3519V15.6458C14.8833 16.1009 15.2537 16.4697 15.7098 16.4697H19.0181C19.4742 16.4697 19.8446 16.1009 19.8446 15.6458V12.3519C19.8446 11.8968 19.4742 11.528 19.0181 11.528Z" fill="white"/>
<path d="M10.7506 21.4108H9.09681V19.7638H10.7506V21.4108ZM11.5779 18.1169H8.2695C7.81253 18.1169 7.44307 18.4857 7.44307 18.9408V22.2347C7.44307 22.6898 7.81253 23.0586 8.2695 23.0586H11.5779C12.0339 23.0586 12.4043 22.6898 12.4043 22.2347V18.9408C12.4043 18.4857 12.0339 18.1169 11.5779 18.1169Z" fill="white"/>
<path d="M18.1908 21.4108H16.5371V19.7638H18.1908V21.4108ZM19.0181 18.1169H15.7098C15.2537 18.1169 14.8833 18.4857 14.8833 18.9408V22.2347C14.8833 22.6898 15.2537 23.0586 15.7098 23.0586H19.0181C19.4742 23.0586 19.8446 22.6898 19.8446 22.2347V18.9408C19.8446 18.4857 19.4742 18.1169 19.0181 18.1169Z" fill="white"/>
<path d="M41.3462 34.4C41.3462 35.4123 40.5198 36.2353 39.5033 36.2353H25.1376C25.3259 35.7071 25.4638 35.1561 25.546 34.5875H32.2502C32.2776 34.5875 32.305 34.5866 32.3324 34.5839C32.3527 34.5822 32.3731 34.5787 32.3925 34.5751C32.3996 34.5734 32.4058 34.5734 32.4128 34.5716C32.4367 34.5672 32.4597 34.5611 32.4827 34.554C32.4853 34.5531 32.488 34.5531 32.4906 34.5522C32.5145 34.5452 32.5366 34.5364 32.5596 34.5276C32.5622 34.5267 32.5649 34.5258 32.5666 34.525C32.5879 34.5162 32.6082 34.5065 32.6285 34.4959C32.6321 34.4941 32.6365 34.4924 32.64 34.4906C32.6586 34.4809 32.6762 34.4695 32.693 34.4589C32.6992 34.4554 32.7045 34.4519 32.7098 34.4484C32.7257 34.4387 32.7399 34.4273 32.7549 34.4158C32.7611 34.4105 32.7682 34.4061 32.7752 34.4009C32.7903 34.3885 32.8044 34.3744 32.8186 34.3612C32.8239 34.356 32.8292 34.3516 32.8345 34.3472L38.623 28.5824C38.6283 28.5772 38.6327 28.571 38.638 28.5657C38.6513 28.5516 38.6646 28.5375 38.6778 28.5226C38.6831 28.5164 38.6875 28.5085 38.6928 28.5023C38.7043 28.4874 38.7158 28.4733 38.7255 28.4574C38.7291 28.4521 38.7326 28.446 38.7361 28.4407C38.7468 28.424 38.7582 28.4064 38.768 28.3879C38.7697 28.3844 38.7715 28.3809 38.7733 28.3765C38.7839 28.3562 38.7936 28.336 38.8024 28.3157C38.8033 28.3131 38.8042 28.3104 38.8051 28.3078C38.8139 28.2858 38.8228 28.2629 38.8298 28.24C38.8307 28.2365 38.8307 28.2339 38.8316 28.2312C38.8387 28.2083 38.8449 28.1854 38.8493 28.1617C38.851 28.1546 38.851 28.1476 38.8528 28.1405C38.8555 28.1212 38.859 28.1018 38.8617 28.0816C38.8643 28.0543 38.8652 28.027 38.8652 27.9997V9.0586C38.8652 8.60351 38.4948 8.23469 38.0388 8.23469H33.9039C32.9918 8.23469 32.2502 7.49615 32.2502 6.58774H39.5033C40.5198 6.58774 41.3462 7.41077 41.3462 8.42305V34.4ZM16.952 24.7058C12.3028 24.7058 8.49587 28.3632 8.27932 32.9405H4.96122V9.88163H37.2114V27.1758H32.2502C31.7932 27.1758 31.4229 27.5446 31.4229 27.9997V32.9405H25.6246C25.4081 28.3632 21.6012 24.7058 16.952 24.7058ZM21.4996 34.5875C21.4996 35.0425 21.1292 35.4114 20.6731 35.4114H19.0194V37.0583C19.0194 37.5134 18.649 37.8822 18.1921 37.8822H15.711C15.2549 37.8822 14.8846 37.5134 14.8846 37.0583V35.4114H13.2308C12.7739 35.4114 12.4035 35.0425 12.4035 34.5875V32.1175C12.4035 31.6624 12.7739 31.2936 13.2308 31.2936H14.8846V29.6467C14.8846 29.1916 15.2549 28.8236 15.711 28.8236H18.1921C18.649 28.8236 19.0194 29.1916 19.0194 29.6467V31.2936H20.6731C21.1292 31.2936 21.4996 31.6624 21.4996 32.1175V34.5875ZM3.49575 36.2353C2.48017 36.2353 1.65374 35.4123 1.65374 34.4V8.42305C1.65374 7.41077 2.48017 6.58774 3.49575 6.58774H5.78765C5.78765 7.18719 5.95029 7.74968 6.23313 8.23469H4.13391C3.67783 8.23469 3.30748 8.60351 3.30748 9.0586V33.7644C3.30748 34.2195 3.67783 34.5875 4.13391 34.5875H8.35799C8.44019 35.1561 8.57807 35.7071 8.76546 36.2353H3.49575ZM14.0573 6.58774C14.0573 7.18719 14.2199 7.74968 14.5027 8.23469H9.09603C8.18386 8.23469 7.44229 7.49615 7.44229 6.58774H14.0573ZM7.44229 3.29387C7.44229 2.38546 8.18386 1.64693 9.09603 1.64693C10.0082 1.64693 10.7498 2.38546 10.7498 3.29387V4.9408H7.44229V3.29387ZM22.3269 6.58774C22.3269 7.18719 22.4895 7.74968 22.7715 8.23469H17.3647C16.4535 8.23469 15.711 7.49615 15.711 6.58774H22.3269ZM15.711 3.29387C15.711 2.38546 16.4535 1.64693 17.3647 1.64693C18.2769 1.64693 19.0194 2.38546 19.0194 3.29387V4.9408H15.711V3.29387ZM30.5965 6.58774C30.5965 7.18719 30.7591 7.74968 31.0411 8.23469H25.6343C24.7222 8.23469 23.9806 7.49615 23.9806 6.58774H30.5965ZM23.9806 3.29387C23.9806 2.38546 24.7222 1.64693 25.6343 1.64693C26.5465 1.64693 27.2881 2.38546 27.2881 3.29387V4.9408H23.9806V3.29387ZM32.2502 3.29387C32.2502 2.38546 32.9918 1.64693 33.9039 1.64693C34.8161 1.64693 35.5577 2.38546 35.5577 3.29387V4.9408H32.2502V3.29387ZM39.5033 4.9408H37.2114V3.29387C37.2114 1.47704 35.7274 0 33.9039 0C32.0796 0 30.5965 1.47704 30.5965 3.29387V4.9408H28.9427V3.29387C28.9427 1.47704 27.4587 0 25.6343 0C23.8109 0 22.3269 1.47704 22.3269 3.29387V4.9408H20.6731V3.29387C20.6731 1.47704 19.1891 0 17.3647 0C15.5413 0 14.0573 1.47704 14.0573 3.29387V4.9408H12.4035V3.29387C12.4035 1.47704 10.9195 0 9.09603 0C7.2717 0 5.78765 1.47704 5.78765 3.29387V4.9408H3.49575C1.56801 4.9408 0 6.50323 0 8.42305V34.4C0 36.3198 1.56801 37.8822 3.49575 37.8822H9.55831C11.0892 40.3504 13.8301 42 16.952 42C20.073 42 22.8148 40.3504 24.3448 37.8822H39.5033C41.432 37.8822 43 36.3198 43 34.4V8.42305C43 6.50323 41.432 4.9408 39.5033 4.9408Z" fill="white"/>
<path d="M17.3647 32.1176V30.4706H16.5383V32.1176C16.5383 32.5718 16.1679 32.9406 15.7109 32.9406H14.0572V33.7645H15.7109C16.1679 33.7645 16.5383 34.1333 16.5383 34.5875V36.2354H17.3647V34.5875C17.3647 34.1333 17.735 33.7645 18.192 33.7645H19.8457V32.9406H18.192C17.735 32.9406 17.3647 32.5718 17.3647 32.1176Z" fill="white"/>
</svg>
