<svg width="42" height="42" viewBox="0 0 42 42" fill="none" xmlns="http://www.w3.org/2000/svg">
<path d="M20.9998 40.3839C12.5286 40.3839 4.62615 35.0849 1.67121 27.461C4.62606 19.8371 12.5285 14.5381 20.9998 14.5381C29.4712 14.5381 37.3736 19.8371 40.3285 27.461C37.3736 35.0849 29.4712 40.3839 20.9998 40.3839ZM29.0767 7.26906C29.0767 6.82273 29.4384 6.46101 29.8844 6.46101H31.4998V4.84575C31.4998 4.40028 31.8615 4.03856 32.3075 4.03856H34.7306C35.1766 4.03856 35.5382 4.40028 35.5382 4.84575V6.46101H37.1536C37.5997 6.46101 37.9613 6.82273 37.9613 7.26906V9.69238C37.9613 10.1378 37.5997 10.4996 37.1536 10.4996H35.5382V12.1148C35.5382 12.5611 35.1766 12.9229 34.7306 12.9229H32.3075C31.8615 12.9229 31.4998 12.5611 31.4998 12.1148V10.4996H29.8844C29.4384 10.4996 29.0767 10.1378 29.0767 9.69238V7.26906ZM33.8763 16.9537C38.3875 16.7655 41.9998 13.0368 41.9998 8.48029C41.9998 3.8046 38.1953 0 33.519 0C28.8427 0 25.0383 3.8046 25.0383 8.48029C25.0383 10.4435 25.7086 12.2521 26.832 13.6904C24.9398 13.1827 22.9829 12.9229 20.9998 12.9229C16.424 12.9229 11.986 14.3068 8.16546 16.9243C4.42811 19.484 1.54595 23.1272 0.0499209 27.1813C-0.0166403 27.3617 -0.0166403 27.5603 0.0499209 27.7407C1.54595 31.7957 4.42811 35.438 8.16546 37.9986C11.986 40.6161 16.424 42 20.9998 42C25.5756 42 30.0137 40.6161 33.8343 37.9986C37.5717 35.438 40.4538 31.7957 41.9499 27.7407C42.0164 27.5603 42.0164 27.3617 41.9499 27.1813C40.4594 23.1427 37.5931 19.5125 33.8763 16.9537Z" fill="white"/>
<path d="M33.1145 9.69237V11.3076H33.9222V9.69237C33.9222 9.24604 34.2838 8.88431 34.7299 8.88431H36.3452V8.07712H34.7299C34.2838 8.07712 33.9222 7.71539 33.9222 7.26906V5.65381H33.1145V7.26906C33.1145 7.71539 32.7528 8.07712 32.3067 8.07712H30.6914V8.88431H32.3067C32.7528 8.88431 33.1145 9.24604 33.1145 9.69237Z" fill="white"/>
<path d="M21.0001 29.0762C20.1094 29.0762 19.3848 29.8014 19.3848 30.6924C19.3848 31.5824 20.1094 32.3076 21.0001 32.3076C21.8909 32.3076 22.6155 31.5824 22.6155 30.6924C22.6155 29.8014 21.8909 29.0762 21.0001 29.0762Z" fill="white"/>
<path d="M21.166 33.9181C21.1109 33.9206 21.0556 33.9224 20.9999 33.9224C20.9442 33.9224 20.8889 33.9206 20.8339 33.9181C17.3477 33.8291 14.5385 30.9681 14.5385 27.4605C14.5385 23.8976 17.437 20.9995 20.9999 20.9995C24.5628 20.9995 27.4614 23.8976 27.4614 27.4605C27.4614 30.9681 24.6522 33.8291 21.166 33.9181ZM20.9999 16.9609C15.2102 16.9609 10.5 21.6712 10.5 27.4605C10.5 33.2507 15.2102 37.9609 20.9999 37.9609C26.7896 37.9609 31.4998 33.2507 31.4998 27.4605C31.4998 21.6712 26.7896 16.9609 20.9999 16.9609Z" fill="white"/>
<path d="M20.9994 22.6149C18.3273 22.6149 16.1533 24.7887 16.1533 27.4606C16.1533 28.9049 16.789 30.2025 17.7943 31.0908C17.7781 30.9605 17.7687 30.8266 17.7687 30.692C17.7687 28.9101 19.218 27.4606 20.9994 27.4606C22.7809 27.4606 24.2302 28.9101 24.2302 30.692C24.2302 30.8266 24.2209 30.9605 24.2046 31.0908C25.2099 30.2025 25.8456 28.9049 25.8456 27.4606C25.8456 24.7887 23.6715 22.6149 20.9994 22.6149Z" fill="white"/>
<path d="M8.88496 9.69333C9.33035 9.69333 9.69268 10.0551 9.69268 10.5005C9.69268 10.946 9.33035 11.3086 8.88496 11.3086C8.43967 11.3086 8.07734 10.946 8.07734 10.5005C8.07734 10.0551 8.43967 9.69333 8.88496 9.69333ZM8.88496 12.9238C10.2211 12.9238 11.3081 11.8369 11.3081 10.5005C11.3081 9.16498 10.2211 8.07807 8.88496 8.07807C7.54891 8.07807 6.46191 9.16498 6.46191 10.5005C6.46191 11.8369 7.54891 12.9238 8.88496 12.9238Z" fill="white"/>
<path d="M3.23076 4.03901C4.12144 4.03901 4.8461 4.76332 4.8461 5.65426C4.8461 6.5452 4.12144 7.26951 3.23076 7.26951C2.34 7.26951 1.61534 6.5452 1.61534 5.65426C1.61534 4.76332 2.34 4.03901 3.23076 4.03901ZM3.23076 8.88477C5.01212 8.88477 6.46144 7.43527 6.46144 5.65426C6.46144 3.87239 5.01212 2.42376 3.23076 2.42376C1.44924 2.42376 0 3.87239 0 5.65426C0 7.43527 1.44924 8.88477 3.23076 8.88477Z" fill="white"/>
</svg>
