<svg width="43" height="42" viewBox="0 0 43 42" fill="none" xmlns="http://www.w3.org/2000/svg">
<path d="M17.1993 28.7991L20.8945 25.0769L22.0639 26.2547L18.3686 29.9769L17.1993 28.7991ZM18.661 34.3944C18.1774 34.8814 17.3904 34.8814 16.9068 34.3944L12.2291 29.6822L10.7673 28.2097C10.7672 28.2097 10.7671 28.2097 10.767 28.2097L7.55122 24.9709C7.31691 24.735 7.18795 24.4207 7.18795 24.0869C7.18795 23.7539 7.31691 23.4397 7.55122 23.2037C7.78553 22.9678 8.09701 22.8379 8.42837 22.8379C8.75964 22.8379 9.07112 22.9678 9.30534 23.2037L10.1824 24.0869C10.1824 24.0869 10.1824 24.0869 10.1825 24.0869L12.5214 26.4434L15.445 29.3876L17.7839 31.7441C17.7841 31.7441 17.7844 31.7441 17.7847 31.7441L18.661 32.6272C18.8953 32.8632 19.0243 33.1765 19.0243 33.5104C19.0243 33.8442 18.8953 34.1576 18.661 34.3944ZM15.632 19.7762L16.8014 20.954L13.1061 24.6763L11.9366 23.4984L15.632 19.7762ZM14.2755 25.8541L17.9709 22.1319L19.7251 23.899L16.0297 27.6213L14.2755 25.8541ZM30.6479 9.36363L31.5249 8.47959C31.7592 8.24366 32.0706 8.11369 32.402 8.11369C32.7333 8.11369 33.0447 8.24366 33.279 8.47959C33.7627 8.96745 33.7627 9.75979 33.279 10.2468L32.402 11.1299L30.6479 9.36363ZM5.50471 38.2226L3.75059 36.4554L10.1825 29.9769L11.9366 31.7441L5.50471 38.2226ZM23.8181 26.8441C23.8182 26.8441 23.8182 26.8441 23.8183 26.8432L33.6321 16.9585C33.7509 16.8392 33.8305 16.6861 33.8608 16.5196L34.3848 13.636C34.4336 13.3672 34.3483 13.0903 34.1561 12.8971L33.5714 12.3077L34.4485 11.4246C35.3738 10.4925 35.5397 9.08141 34.9477 7.97747L41.4558 1.42155C41.7788 1.0966 41.7788 0.569553 41.4558 0.243713C41.1327 -0.081234 40.6093 -0.081234 40.2864 0.243713L33.7791 6.79787C33.3612 6.56996 32.8908 6.448 32.402 6.448C31.6289 6.448 30.9021 6.75159 30.3554 7.30177L29.4783 8.1858L28.8936 7.59645C28.7014 7.40326 28.4273 7.3169 28.1599 7.36586L25.2971 7.8938C25.1319 7.92407 24.98 8.00507 24.8613 8.12437L10.7673 22.3206L10.4749 22.0259C9.92821 21.4757 9.2014 21.1722 8.42837 21.1722C7.65525 21.1722 6.92845 21.4757 6.38177 22.0259C5.83519 22.5761 5.53414 23.3088 5.53414 24.0869C5.53414 24.8659 5.83519 25.5977 6.38177 26.1488L9.01305 28.7991L2.58114 35.2776L1.41169 34.0998C1.08873 33.7739 0.565123 33.7739 0.242158 34.0998C-0.0807193 34.4247 -0.0807193 34.9526 0.242158 35.2776L2.69251 37.7454L4.91994 39.9889C4.92021 39.9898 4.92039 39.9898 4.92056 39.9898L6.67416 41.7561C6.83564 41.919 7.04733 42 7.25893 42C7.47052 42 7.68212 41.919 7.8436 41.7561C8.16657 41.4311 8.16657 40.9032 7.8436 40.5782L6.67416 39.4004L13.1062 32.9219L15.7373 35.5723C16.3016 36.1403 17.0427 36.4242 17.7839 36.4242C18.5251 36.4242 19.2662 36.1403 19.8305 35.5723C20.3771 35.0212 20.6781 34.2894 20.6781 33.5104C20.6781 32.7314 20.3771 31.9996 19.8305 31.4494L19.5381 31.1547L23.818 26.8441H23.8181Z" fill="white"/>
<path d="M37.2115 40.3343V35.3363H41.346V40.3343H37.2115ZM31.423 35.3363H35.5576V40.3343H31.423V35.3363ZM32.9348 25.0092C32.9663 24.7243 33.2051 24.5089 33.4903 24.5089C33.7755 24.5089 34.0144 24.7243 34.0458 25.0092L34.6337 30.3393H32.3469L32.9348 25.0092ZM38.7233 25.0092C38.7547 24.7243 38.9935 24.5089 39.2788 24.5089C39.564 24.5089 39.8028 24.7243 39.8343 25.0092L40.4221 30.3393H38.1354L38.7233 25.0092ZM37.2115 32.0049H41.346V33.6706H37.2115V32.0049ZM31.423 32.0049H35.5576V33.6706H31.423V32.0049ZM42.173 30.3393H42.0862L41.478 24.8258C41.3533 23.6952 40.408 22.8432 39.2788 22.8432C38.1495 22.8432 37.2041 23.6952 37.0796 24.8258L36.4713 30.3393H36.3845H36.2977L35.6895 24.8258C35.5649 23.6952 34.6195 22.8432 33.4903 22.8432C32.3612 22.8432 31.4157 23.6952 31.2912 24.8258L30.6829 30.3393H30.5961C30.1394 30.3393 29.7691 30.7123 29.7691 31.1725V41.1667C29.7691 41.627 30.1394 42 30.5961 42H36.3845H42.173C42.6297 42 42.9999 41.627 42.9999 41.1667V31.1725C42.9999 30.7123 42.6297 30.3393 42.173 30.3393Z" fill="white"/>
<path d="M15.7105 9.5166C17.9904 9.5166 19.8452 7.64794 19.8452 5.35193C19.8452 3.05504 17.9904 1.18725 15.7105 1.18725C13.4307 1.18725 11.576 3.05504 11.576 5.35193C11.576 7.64794 13.4307 9.5166 15.7105 9.5166Z" fill="white"/>
<path d="M10.3371 12.848C11.021 12.848 11.5775 13.4089 11.5775 14.0971C11.5775 14.7861 11.021 15.347 10.3371 15.347C9.65312 15.347 9.09664 14.7861 9.09664 14.0971C9.09664 13.4089 9.65312 12.848 10.3371 12.848ZM10.3371 17.0127C11.9329 17.0127 13.2313 15.7049 13.2313 14.0971C13.2313 12.4901 11.9329 11.1823 10.3371 11.1823C8.74115 11.1823 7.44283 12.4901 7.44283 14.0971C7.44283 15.7049 8.74115 17.0127 10.3371 17.0127Z" fill="white"/>
</svg>
