<svg width="41" height="40" viewBox="0 0 41 40" fill="none" xmlns="http://www.w3.org/2000/svg">
<path d="M38.7834 21.5546C38.7834 25.7512 36.7539 29.8081 33.0687 32.977C29.5132 36.0331 24.932 37.7875 20.5001 37.7875C16.068 37.7875 11.4868 36.0331 7.93147 32.977C4.24621 29.8081 2.21659 25.7512 2.21659 21.5546V19.7639C2.21659 19.2132 2.66535 18.7658 3.21687 18.7658H8.91857C8.8805 19.2494 8.85857 19.7424 8.85857 20.2341C8.85857 21.736 9.04488 23.2244 9.39894 24.6429C9.40741 24.694 9.42153 24.741 9.43673 24.7894C9.86719 26.4551 10.5294 28.0214 11.403 29.397C11.8275 30.066 12.5393 30.4502 13.3027 30.4502C13.4707 30.4502 13.6412 30.4314 13.8118 30.3924C14.7631 30.1802 15.4558 29.4185 15.5766 28.454C16.1429 23.935 17.4569 18.5482 20.5018 18.5428C20.5033 18.5428 20.5045 18.5428 20.5061 18.5428C22.9449 18.5428 24.5994 21.877 25.4232 28.454C25.5442 29.4185 26.2371 30.1802 27.1885 30.3924C28.134 30.6033 29.0797 30.2124 29.597 29.397C30.4726 28.0174 31.136 26.447 31.5664 24.7773C31.5794 24.7343 31.5922 24.6913 31.6 24.647C31.9546 23.2271 32.1413 21.7373 32.1413 20.2341C32.1413 19.7451 32.1194 19.2521 32.0813 18.7658H37.7831C38.3348 18.7658 38.7834 19.2132 38.7834 19.7639V21.5546ZM29.3991 24.3111C29.0264 25.7243 28.4628 27.0502 27.7249 28.2122C27.715 28.2283 27.7086 28.2323 27.7086 28.2323C27.6998 28.2364 27.6696 28.2364 27.645 28.2216C27.6326 28.2149 27.6266 28.2109 27.6224 28.1786C26.9852 23.0914 25.5549 16.329 20.5073 16.329C20.5045 16.329 20.5009 16.329 20.4983 16.329C16.7574 16.3357 14.3616 20.3228 13.3773 28.18C13.3733 28.2122 13.3672 28.2149 13.3551 28.2229C13.3304 28.2364 13.2997 28.2364 13.2919 28.2337C13.2919 28.2337 13.2853 28.2297 13.2749 28.2122C12.5367 27.0502 11.9729 25.7243 11.6002 24.3098C11.6388 21.8515 12.6492 18.9243 14.2606 16.6272C15.3046 15.1402 17.5167 12.6442 20.6015 12.6442C25.6559 12.6442 29.3262 19.5571 29.3991 24.3111ZM9.08147 3.37115C9.85441 2.59873 10.9822 2.20916 12.3503 2.20916C13.4057 2.20916 14.6043 2.44156 15.8934 2.90904C17.1678 3.37115 18.4975 3.63311 19.8347 3.69759C19.2947 4.38404 18.8641 5.2169 18.5988 6.2459C18.4465 6.83831 18.8037 7.44147 19.3963 7.59462C19.4889 7.61745 19.5818 7.62954 19.6732 7.62954C20.1667 7.62954 20.6171 7.29773 20.7457 6.798C21.3214 4.56134 22.9116 3.64117 25.6447 2.72501C25.6458 2.72501 25.6466 2.72501 25.6478 2.72367C28.3679 1.86125 30.6337 2.08826 31.9181 3.37115C33.6998 5.14973 33.4124 8.82511 31.1858 12.7342C30.3692 14.1676 29.9127 15.7541 29.836 17.3889C29.4876 16.6823 29.0962 16.0026 28.6643 15.3699C26.4926 12.1848 23.6292 10.4304 20.6015 10.4304C16.3983 10.4304 13.0771 13.7082 11.1701 17.5286C11.1138 15.8441 10.654 14.2065 9.81339 12.7302C7.58805 8.82244 7.30085 5.14973 9.08147 3.37115ZM37.7831 16.552H32.1526C32.3088 15.5996 32.628 14.6794 33.1124 13.829C35.8884 8.95541 36.0316 4.34776 33.4858 1.80616H33.4855C31.5903 -0.0866051 28.5058 -0.505722 24.958 0.622684C24.952 0.62537 24.9459 0.625381 24.9398 0.626724C24.8072 0.671055 24.6738 0.716717 24.5401 0.763737C24.4768 0.785229 24.4147 0.804024 24.3511 0.826862C21.8687 1.72824 19.1338 1.72826 16.6496 0.828224C12.8477 -0.551384 9.51758 -0.195415 7.51433 1.80616C4.96911 4.34776 5.11183 8.95274 7.88654 13.825C8.37175 14.6767 8.69123 15.5982 8.84741 16.552H3.21687C1.44325 16.552 0 17.9921 0 19.7639V21.5546C0 26.4054 2.30322 31.0587 6.485 34.6535C10.4367 38.0522 15.5449 40 20.5001 40C25.4551 40 30.5634 38.0522 34.515 34.6535C38.6969 31.0587 41 26.4054 41 21.5546V19.7639C41 17.9921 39.5569 16.552 37.7831 16.552Z" fill="white"/>
</svg>
