<svg width="48" height="48" viewBox="0 0 48 48" fill="none" xmlns="http://www.w3.org/2000/svg">
<circle cx="24" cy="24" r="24" fill="#BEDC48"/>
<path d="M24.9444 19.6201C24.9444 20.6468 25.2127 21.5089 25.7494 22.2066C26.1297 22.6873 26.6458 23.003 27.2976 23.1539C27.9392 23.3033 28.5459 23.3138 29.0942 23.1866C29.2809 24.2949 28.9776 25.4686 28.2076 26.7123C27.436 27.9551 26.4412 28.8896 25.2232 29.5158L27.0677 32.1699C28.0011 31.7079 28.8877 31.1223 29.7044 30.4141C30.5327 29.7059 31.2677 28.8916 31.9211 27.9711C32.5744 27.0506 33.0644 26.0111 33.3794 24.8328C33.6944 23.6544 33.7819 22.4528 33.6314 21.2161C33.4354 19.5828 32.9081 18.2761 32.0494 17.3078C31.1915 16.327 30.1229 15.8366 28.8434 15.8366C27.7176 15.8366 26.7831 16.1749 26.0434 16.8609C25.3115 17.5329 24.946 18.4538 24.9467 19.6236L24.9444 19.6201ZM14.2997 19.6201C14.2997 20.6468 14.5681 21.5089 15.1047 22.2066C15.4859 22.6966 16.0019 23.0143 16.6529 23.1598C17.3062 23.3036 17.9051 23.3122 18.4496 23.1854C18.6362 24.2821 18.3446 25.4604 17.5722 26.7088C16.8022 27.9454 15.8082 28.8788 14.5902 29.5088L16.4301 32.1699C17.3642 31.7079 18.2431 31.1226 19.0667 30.4141C19.9025 29.6953 20.6449 28.8746 21.2764 27.9711C21.9251 27.0494 22.4081 26.0111 22.7231 24.8328C23.0431 23.6553 23.1291 22.4266 22.9762 21.2161C22.7826 19.5828 22.2576 18.2761 21.4012 17.3078C20.5457 16.334 19.479 15.8471 18.2011 15.8471C17.0733 15.8455 16.1392 16.1866 15.3987 16.8703C14.6669 17.5423 14.3005 18.4631 14.2997 19.6329V19.6201Z" fill="#1C293F"/>
</svg>
