<svg width="23" height="28" viewBox="0 0 23 28" fill="none" xmlns="http://www.w3.org/2000/svg">
<path d="M12.143 9.96228V8.07735H10.5237V9.96228C10.5237 10.2593 10.282 10.5004 9.98439 10.5004H8.09521V12.116H9.98439C10.282 12.116 10.5237 12.3571 10.5237 12.6541V14.5391H12.143V12.6541C12.143 12.3571 12.3847 12.116 12.6823 12.116H14.5715V10.5004H12.6823C12.3847 10.5004 12.143 10.2593 12.143 9.96228Z" fill="#84A17D"/>
<path d="M15.6509 12.6527C15.6509 12.9503 15.4092 13.1914 15.1116 13.1914H13.2224V15.0764C13.2224 15.3734 12.9807 15.6145 12.6824 15.6145H9.98452C9.68629 15.6145 9.44458 15.3734 9.44458 15.0764V13.1914H7.5554C7.25775 13.1914 7.01605 12.9503 7.01605 12.6527V9.96087C7.01605 9.66331 7.25775 9.42214 7.5554 9.42214H9.44458V7.5378C9.44458 7.24024 9.68629 6.99907 9.98452 6.99907H12.6824C12.9807 6.99907 13.2224 7.24024 13.2224 7.5378V9.42214H15.1116C15.4092 9.42214 15.6509 9.66331 15.6509 9.96087V12.6527ZM19.4287 11.3071C19.4287 6.85288 15.7974 3.22979 11.3338 3.22979C6.86953 3.22979 3.23828 6.85288 3.23828 11.3071C3.23828 15.7607 6.86953 19.3838 11.3338 19.3838C15.7974 19.3838 19.4287 15.7607 19.4287 11.3071Z" fill="#84A17D"/>
<path d="M19.6988 26.9231H12.2984L13.9563 24.2307H19.6988C20.4429 24.2307 21.048 24.835 21.048 25.5769C21.048 26.3194 20.4429 26.9231 19.6988 26.9231ZM11.3339 26.4328L8.07414 21.1389C8.01069 21.0353 7.91434 20.957 7.8007 20.915C3.78065 19.4427 1.07986 15.5819 1.07986 11.3079C1.07986 5.6663 5.67963 1.07687 11.3339 1.07687C16.9876 1.07687 21.5874 5.6663 21.5874 11.3079C21.5874 15.5819 18.8866 19.4427 14.8671 20.915C14.7529 20.957 14.6565 21.0353 14.5931 21.1389L11.3339 26.4328ZM2.95114 26.9231C2.20701 26.9231 1.6019 26.3194 1.6019 25.5769C1.6019 24.835 2.20701 24.2307 2.95114 24.2307H8.71156L10.3688 26.9231H2.95114ZM19.6988 23.1538H14.619L15.4157 21.8594C17.497 21.0583 19.2788 19.6752 20.5785 17.8501C21.9445 15.9318 22.6667 13.6693 22.6667 11.3079C22.6667 5.07233 17.5829 0 11.3339 0C5.08432 0 0 5.07233 0 11.3079C0 13.6693 0.722777 15.9318 2.08875 17.8501C3.38839 19.6752 5.17028 21.0583 7.25155 21.8594L8.04818 23.1538H2.95114C1.6117 23.1538 0.522611 24.2411 0.522611 25.5769C0.522611 26.9133 1.6117 28 2.95114 28H11.271C11.2831 28 11.2947 27.9994 11.3062 27.9983C11.3155 27.9988 11.3247 28 11.3339 28C11.3402 28 11.3466 27.9994 11.3535 27.9988C11.3616 27.9994 11.3703 28 11.3783 28H19.6988C21.0376 28 22.1273 26.9133 22.1273 25.5769C22.1273 24.2411 21.0376 23.1538 19.6988 23.1538Z" fill="#84A17D"/>
</svg>
