<svg width="33" height="32" viewBox="0 0 33 32" fill="none" xmlns="http://www.w3.org/2000/svg">
<path d="M31.2159 17.2437C31.2159 20.6009 29.5824 23.8465 26.6162 26.3816C23.7545 28.8265 20.0673 30.23 16.5001 30.23C12.9327 30.23 9.24547 28.8265 6.38387 26.3816C3.41768 23.8465 1.78409 20.6009 1.78409 17.2437V15.8111C1.78409 15.3705 2.14528 15.0127 2.58919 15.0127H7.17836C7.14772 15.3995 7.13007 15.794 7.13007 16.1873C7.13007 17.3888 7.28003 18.5795 7.565 19.7143C7.57182 19.7552 7.58318 19.7928 7.59542 19.8315C7.94189 21.1641 8.47491 22.4171 9.17802 23.5176C9.51972 24.0528 10.0926 24.3602 10.707 24.3602C10.8422 24.3602 10.9795 24.3451 11.1168 24.3139C11.8825 24.1441 12.44 23.5348 12.5372 22.7632C12.993 19.148 14.0506 14.8386 16.5015 14.8343C16.5027 14.8343 16.5036 14.8343 16.5049 14.8343C18.4679 14.8343 19.7995 17.5016 20.4626 22.7632C20.56 23.5348 21.1177 24.1441 21.8834 24.3139C22.6444 24.4827 23.4056 24.1699 23.822 23.5176C24.5267 22.4139 25.0607 21.1576 25.4071 19.8218C25.4176 19.7874 25.4279 19.753 25.4341 19.7176C25.7195 18.5816 25.8698 17.3898 25.8698 16.1873C25.8698 15.7961 25.8522 15.4017 25.8215 15.0127H30.4108C30.8548 15.0127 31.2159 15.3705 31.2159 15.8111V17.2437ZM23.6627 19.4489C23.3627 20.5795 22.909 21.6402 22.3152 22.5698C22.3072 22.5827 22.3021 22.5859 22.3021 22.5859C22.2949 22.5891 22.2707 22.5891 22.2509 22.5773C22.2409 22.5719 22.236 22.5687 22.2327 22.5429C21.7198 18.4731 20.5686 13.0632 16.5059 13.0632C16.5036 13.0632 16.5007 13.0632 16.4986 13.0632C13.4876 13.0686 11.5593 16.2582 10.7671 22.544C10.7639 22.5698 10.759 22.5719 10.7492 22.5783C10.7293 22.5891 10.7046 22.5891 10.6984 22.5869C10.6984 22.5869 10.6931 22.5837 10.6847 22.5698C10.0905 21.6402 9.63676 20.5795 9.33674 19.4478C9.36782 17.4812 10.181 15.1395 11.478 13.3018C12.3183 12.1121 14.0988 10.1154 16.5817 10.1154C20.6499 10.1154 23.604 15.6456 23.6627 19.4489ZM7.30948 2.69692C7.9316 2.07899 8.83934 1.76733 9.94046 1.76733C10.79 1.76733 11.7546 1.95324 12.7922 2.32723C13.818 2.69692 14.8882 2.90649 15.9645 2.95807C15.5298 3.50723 15.1833 4.17352 14.9698 4.99672C14.8472 5.47065 15.1346 5.95318 15.6117 6.07569C15.6862 6.09396 15.761 6.10363 15.8345 6.10363C16.2318 6.10363 16.5942 5.83818 16.6978 5.4384C17.1612 3.64907 18.441 2.91293 20.6409 2.18001C20.6417 2.18001 20.6424 2.18001 20.6434 2.17894C22.8327 1.489 24.6564 1.67061 25.6902 2.69692C27.1242 4.11979 26.8929 7.06009 25.1008 10.1874C24.4435 11.3341 24.0761 12.6032 24.0144 13.9111C23.734 13.3458 23.4189 12.8021 23.0712 12.2959C21.3233 9.74785 19.0187 8.34432 16.5817 8.34432C13.1987 8.34432 10.5254 10.9665 8.9906 14.0229C8.94523 12.6752 8.57516 11.3652 7.89858 10.1842C6.10745 7.05795 5.87629 4.11979 7.30948 2.69692ZM30.4108 13.2416H25.8789C26.0046 12.4797 26.2615 11.7435 26.6514 11.0632C28.8858 7.16433 29.001 3.47821 26.952 1.44493H26.9518C25.4263 -0.0692825 22.9437 -0.404575 20.0882 0.498146C20.0833 0.500296 20.0784 0.500305 20.0735 0.501379C19.9668 0.536844 19.8594 0.573374 19.7518 0.610987C19.7009 0.628181 19.6508 0.643219 19.5996 0.661489C17.6016 1.38259 15.4003 1.38261 13.4009 0.66258C10.3408 -0.441109 7.66049 -0.156334 6.04812 1.44493C3.99953 3.47821 4.1144 7.16219 6.34771 11.06C6.73824 11.7414 6.99538 12.4786 7.12109 13.2416H2.58919C1.16164 13.2416 0 14.3937 0 15.8111V17.2437C0 21.1243 1.85381 24.847 5.21963 27.7228C8.40031 30.4417 12.5118 32 16.5001 32C20.4882 32 24.5998 30.4417 27.7804 27.7228C31.1463 24.847 33 21.1243 33 17.2437V15.8111C33 14.3937 31.8385 13.2416 30.4108 13.2416Z" fill="white"/>
</svg>
