<svg width="28" height="28" viewBox="0 0 28 28" fill="none" xmlns="http://www.w3.org/2000/svg">
<path d="M23.6121 18.3079H4.38733C4.04028 17.6247 3.76461 16.9036 3.57065 16.1537H24.4282C24.2342 16.9036 23.9586 17.6247 23.6121 18.3079ZM17.8417 23.5246C17.6553 23.596 17.5235 23.7646 17.4993 23.9626C17.4751 24.1612 17.5626 24.3563 17.7266 24.4702C18.0904 24.7223 18.3073 25.1361 18.3073 25.577C18.3073 26.3194 17.7036 26.9232 16.9612 26.9232H11.0383C10.2958 26.9232 9.69209 26.3194 9.69209 25.577C9.69209 25.1361 9.90906 24.7223 10.2722 24.4702C10.4363 24.3563 10.5243 24.1612 10.5001 23.9626C10.476 23.7646 10.3442 23.596 10.1577 23.5246C8.03454 22.7137 6.2423 21.2403 5.0141 19.3847H22.9853C21.7571 21.2403 19.9649 22.7137 17.8417 23.5246ZM20.3096 6.19684C20.5957 5.69612 21.1321 5.38475 21.7088 5.38475C22.3557 5.38475 22.903 5.73525 23.1735 6.32288C23.4435 6.9105 23.3537 7.55453 22.9329 8.04546L19.6748 11.8463H17.0814L20.3096 6.19684ZM25.8458 11.8463H21.0935L23.7502 8.74648C24.442 7.93957 24.5957 6.83856 24.1519 5.8728C23.7076 4.90762 22.7718 4.30791 21.7088 4.30791C20.7465 4.30791 19.8521 4.82705 19.3744 5.66273L15.8412 11.8463H8.07654V4.84604H9.75021C12.0932 4.84604 13.9994 2.93986 13.9994 0.596836V0.538704C13.9994 0.24115 13.7583 0 13.4613 0H11.2489C9.65583 0 8.26532 0.881727 7.53841 2.18245C6.81093 0.881727 5.42043 0 3.82734 0H1.61496C1.31798 0 1.07683 0.24115 1.07683 0.538704V0.596836C1.07683 2.93986 2.98302 4.84604 5.32605 4.84604H6.99971V11.8463H2.15366C0.965751 11.8463 0 12.8127 0 14C0 15.1879 0.965751 16.1537 2.15366 16.1537H2.46274C2.88576 17.9689 3.73928 19.6725 4.94907 21.1039C6.06849 22.4282 7.46878 23.4935 9.03252 24.2181C8.76432 24.6141 8.61525 25.086 8.61525 25.577C8.61525 26.9128 9.70187 28 11.0383 28H16.9612C18.2976 28 19.3842 26.9128 19.3842 25.577C19.3842 25.086 19.2351 24.6141 18.9669 24.2181C20.5306 23.4935 21.9309 22.4282 23.0504 21.1039C23.5476 20.5151 23.985 19.8797 24.3568 19.2104C24.4173 19.1453 24.461 19.0653 24.4829 18.9767C24.9525 18.0852 25.3076 17.1361 25.5367 16.1537H25.8458C27.0331 16.1537 27.9994 15.1879 27.9994 14C27.9994 12.8127 27.0331 11.8463 25.8458 11.8463Z" fill="#84A17D"/>
<path d="M12.8785 7.14377C13.3211 6.70118 13.9179 6.46003 14.5378 6.46176C14.5401 7.07873 14.2984 7.67845 13.8558 8.12104C13.4132 8.56363 12.8129 8.8065 12.1965 8.80305C12.1936 8.18607 12.4359 7.58636 12.8785 7.14377ZM11.1726 9.39125C11.2117 9.61341 11.3861 9.7878 11.6083 9.82693C11.8074 9.86262 12.0077 9.87988 12.2063 9.87988C13.103 9.87988 13.9732 9.5265 14.6172 8.88247C15.404 8.09629 15.7568 6.97111 15.5617 5.87355C15.522 5.6514 15.3481 5.47758 15.126 5.43787C14.0284 5.24276 12.9038 5.59556 12.1171 6.38233C11.3303 7.16909 10.9769 8.2937 11.1726 9.39125Z" fill="#84A17D"/>
<path d="M16.1639 1.07698C16.7768 1.07698 17.3725 1.30605 17.8128 1.74634C18.2554 2.18893 18.4971 2.80015 18.4943 3.39238C18.4914 3.39238 18.4879 3.39238 18.4845 3.39238C17.8709 3.39238 17.2753 3.1639 16.8355 2.72361C16.3924 2.28102 16.1507 1.66979 16.1535 1.07698C16.157 1.07698 16.1604 1.07698 16.1639 1.07698ZM18.4845 4.49512C18.6836 4.49512 18.8839 4.47785 19.083 4.44274C19.3052 4.40303 19.479 4.22922 19.5187 4.00648C19.7138 2.9095 19.361 1.78432 18.5742 0.997562C17.7875 0.210799 16.6629 -0.142004 15.5653 0.0531034C15.3432 0.0928154 15.1688 0.266627 15.1296 0.489361C14.934 1.58634 15.2873 2.71152 16.0735 3.49828C16.7176 4.14173 17.5878 4.49512 18.4845 4.49512Z" fill="#84A17D"/>
</svg>
