<svg width="33" height="36" viewBox="0 0 33 36" fill="none" xmlns="http://www.w3.org/2000/svg">
<path d="M31.4525 24.9649L30.3572 26.0449C30.3049 26.0964 30.2443 26.1047 30.2043 26.1047C30.1634 26.1038 30.1044 26.0909 30.0553 26.0357L24.5329 19.8936C24.2055 19.5296 23.7347 19.3209 23.2409 19.3209H18.6706H14.3934C13.6338 19.3209 12.9183 19.0314 12.3789 18.5047L1.54778 7.92544C1.49624 7.87489 1.48597 7.81698 1.48653 7.77745C1.487 7.73793 1.49876 7.68094 1.55161 7.63222L2.73865 6.53008C2.82091 6.45378 2.9479 6.45562 3.02773 6.53468L12.7424 16.1386C13.5522 16.9392 14.6748 17.3988 15.8225 17.3988H23.3007C24.2341 17.3988 25.1285 17.7895 25.7545 18.4716L31.4595 24.6836C31.5336 24.7645 31.5306 24.8877 31.4525 24.9649ZM17.184 32.1218H15.8677V20.7843H17.184V32.1218ZM25.4259 33.5852C25.4365 33.5852 25.4451 33.5935 25.4451 33.6045V34.5182C25.4451 34.5283 25.4365 34.5366 25.4259 34.5366H7.62583C7.61519 34.5366 7.6066 34.5283 7.6066 34.5182V33.6045C7.6066 33.5935 7.61519 33.5852 7.62583 33.5852H14.3811H18.6706H25.4259ZM17.6062 7.24155L17.3804 7.65796L14.096 5.93075L14.3219 5.51435C14.5561 5.08324 14.9471 4.76703 15.423 4.62456C15.8987 4.48208 16.4023 4.53079 16.8409 4.76151H16.841C17.2796 4.99224 17.6008 5.37647 17.7453 5.84527C17.8898 6.31407 17.8404 6.80952 17.6062 7.24155ZM32.5622 23.7028L28.7304 19.5296V2.66571C28.7304 1.19589 27.5155 0 26.0221 0H19.9066C18.8741 0 17.9459 0.5644 17.4842 1.4735L16.6337 3.1483C16.0942 3.03891 15.5326 3.06189 14.9908 3.22367C14.1352 3.48013 13.4319 4.04913 13.0106 4.82494L12.4492 5.85997C12.2488 6.23041 12.3915 6.6937 12.7683 6.89225L17.3072 9.27761C17.4233 9.33919 17.5482 9.3686 17.6715 9.3686C17.9485 9.3686 18.2168 9.22153 18.3566 8.96507L18.9175 7.93096C19.3388 7.15423 19.4276 6.26259 19.1676 5.41967C18.9599 4.74681 18.5465 4.1723 17.9871 3.75498L18.8139 2.12797C19.0221 1.71801 19.4408 1.46339 19.9066 1.46339H26.0221C26.6958 1.46339 27.2439 2.00296 27.2439 2.66571V17.9108L26.8572 17.4898C25.9499 16.5017 24.6536 15.9355 23.3007 15.9355H18.9894V15.0732H20.4016C20.8121 15.0732 21.1449 14.7451 21.1449 14.3415C21.1449 13.9371 20.8121 13.6098 20.4016 13.6098H16.0799C15.6695 13.6098 15.3367 13.9371 15.3367 14.3415C15.3367 14.7451 15.6695 15.0732 16.0799 15.0732H17.5028V15.9355H15.8225C15.0673 15.9355 14.3286 15.633 13.7958 15.1063L4.08106 5.5024C3.42886 4.85712 2.39131 4.84149 1.71893 5.46564L0.531895 6.56685C0.194822 6.87938 0.00602387 7.30314 0.000141437 7.75907C-0.005741 8.215 0.17204 8.64334 0.500897 8.96415L11.332 19.5434C12.1488 20.3412 13.2312 20.7815 14.3811 20.7843V32.1218H7.62583C6.79557 32.1218 6.12012 32.7874 6.12012 33.6045V34.5182C6.12012 35.3354 6.79557 36 7.62583 36H25.4259C26.2562 36 26.9316 35.3354 26.9316 34.5182V33.6045C26.9316 32.7874 26.2562 32.1218 25.4259 32.1218H18.6706V20.7843H23.2409C23.3092 20.7843 23.3744 20.8137 23.4197 20.8643L28.9422 27.0055C29.2507 27.3493 29.6945 27.5534 30.1598 27.5672C30.1765 27.5681 30.1932 27.5681 30.2098 27.5681C30.6574 27.5681 31.0922 27.3916 31.4091 27.0791L32.5044 25.999C33.1422 25.3702 33.1676 24.3619 32.5622 23.7028Z" fill="white"/>
</svg>
