<svg width="32" height="28" viewBox="0 0 32 28" fill="none" xmlns="http://www.w3.org/2000/svg">
<path d="M1.21864 11.4016H29.8796L29.8823 11.4019L29.885 11.4016H30.7815V13.759H29.4603H2.53975H1.21864V11.4016ZM6.44808 7.56933C6.59004 7.58645 6.73533 7.55337 6.85696 7.47327C7.01425 7.36974 7.11456 7.19941 7.12889 7.01196C7.30467 4.6984 8.5398 3.3417 9.545 2.61084C10.7646 1.72394 12.3668 1.21543 13.9407 1.21543C15.9688 1.21543 17.7959 2.63162 18.7089 4.91128C18.8192 5.18664 19.1133 5.34251 19.4029 5.28003C19.7296 5.20974 20.0637 5.17417 20.3961 5.17417C21.1551 5.17417 21.894 5.35464 22.5926 5.71043C22.8151 5.8236 23.084 5.79004 23.2714 5.62602C23.9242 5.05486 24.6872 4.75307 25.4781 4.75307C27.6225 4.75307 29.3669 6.95546 29.3669 9.66253C29.3669 9.83769 29.3594 10.0127 29.3448 10.1863H3.08542C3.93617 8.80804 5.97489 7.66588 6.44808 7.56933ZM28.8511 17.8994H18.4107C18.0741 17.8994 17.8014 18.1715 17.8014 18.5071C17.8014 18.8428 18.0741 19.1149 18.4107 19.1149H28.8511V23.058H16.788C16.4516 23.058 16.1787 23.33 16.1787 23.6657C16.1787 24.0014 16.4516 24.2734 16.788 24.2734H28.8511V26.7846H3.14906V24.6779H8.22656C8.56296 24.6779 8.83588 24.4059 8.83588 24.0702C8.83588 23.7347 8.56296 23.4625 8.22656 23.4625H3.14906V21.4872H16.0001C16.3365 21.4872 16.6094 21.2152 16.6094 20.8795C16.6094 20.5438 16.3365 20.2718 16.0001 20.2718H3.14906V18.7102H10.1961C10.5327 18.7102 10.8055 18.4382 10.8055 18.1025C10.8055 17.7668 10.5327 17.4948 10.1961 17.4948H3.14906V14.9745H28.8511V17.8994ZM0.609324 14.9745H1.93043V27.3923C1.93043 27.728 2.20335 28 2.53975 28H29.4603C29.7968 28 30.0696 27.728 30.0696 27.3923V14.9745H31.3907C31.7272 14.9745 32 14.7023 32 14.3668V10.7941C32 10.4584 31.7272 10.1863 31.3907 10.1863H30.5638C30.5759 10.0122 30.5856 9.83752 30.5856 9.66253C30.5856 6.28526 28.2943 3.53763 25.4781 3.53763C24.5151 3.53763 23.591 3.85421 22.7834 4.45694C22.0195 4.12625 21.2182 3.9589 20.3961 3.9589C20.1452 3.9589 19.8936 3.97502 19.6437 4.00676C19.1242 2.89933 18.389 1.9571 17.4986 1.26246C16.4399 0.43655 15.2097 -1.90735e-06 13.9407 -1.90735e-06C10.3448 -1.90735e-06 6.53823 2.21202 5.96373 6.44662C5.73996 6.52123 5.45255 6.6467 5.08099 6.85093C4.62063 7.10419 2.44878 8.37879 1.72782 10.1863H0.609324C0.272924 10.1863 0 10.4584 0 10.7941V14.3668C0 14.7023 0.272924 14.9745 0.609324 14.9745Z" fill="#06030E"/>
<path d="M13.3829 4.10729C12.9935 4.10729 12.6777 4.42203 12.6777 4.81056C12.6777 5.19893 12.9935 5.51367 13.3829 5.51367C13.7722 5.51367 14.088 5.19893 14.088 4.81056C14.088 4.42203 13.7722 4.10729 13.3829 4.10729Z" fill="#06030E"/>
<path d="M7.52154 8.37292C7.13215 8.37292 6.81641 8.68766 6.81641 9.07603C6.81641 9.46455 7.13215 9.7793 7.52154 9.7793C7.91092 9.7793 8.22666 9.46455 8.22666 9.07603C8.22666 8.68766 7.91092 8.37292 7.52154 8.37292Z" fill="#06030E"/>
<path d="M20.7832 7.39131C20.3939 7.39131 20.0781 7.70622 20.0781 8.09458C20.0781 8.48311 20.3939 8.79785 20.7832 8.79785C21.1726 8.79785 21.4882 8.48311 21.4882 8.09458C21.4882 7.70622 21.1726 7.39131 20.7832 7.39131Z" fill="#06030E"/>
<path d="M25.5791 6.9665C25.1896 6.9665 24.874 7.28141 24.874 7.66978C24.874 8.05814 25.1896 8.37305 25.5791 8.37305C25.9685 8.37305 26.2841 8.05814 26.2841 7.66978C26.2841 7.28141 25.9685 6.9665 25.5791 6.9665Z" fill="#06030E"/>
</svg>
