<svg width="29" height="28" viewBox="0 0 29 28" fill="none" xmlns="http://www.w3.org/2000/svg">
<path d="M11.4662 19.1994L13.9297 16.7179L14.7093 17.5031L12.2457 19.9846L11.4662 19.1994ZM12.4407 22.9296C12.1182 23.2543 11.5936 23.2543 11.2712 22.9296L8.15273 19.7882L7.17818 18.8065C7.17812 18.8065 7.17806 18.8065 7.178 18.8065L5.03415 16.6473C4.87794 16.49 4.79197 16.2805 4.79197 16.0579C4.79197 15.8359 4.87794 15.6264 5.03415 15.4692C5.19036 15.3119 5.39801 15.2252 5.61891 15.2252C5.83976 15.2252 6.04741 15.3119 6.20356 15.4692L6.78827 16.0579C6.78827 16.0579 6.78827 16.0579 6.78833 16.0579L8.34759 17.629L10.2966 19.5917L11.8559 21.1627C11.8561 21.1627 11.8563 21.1627 11.8564 21.1627L12.4407 21.7515C12.5969 21.9088 12.6829 22.1177 12.6829 22.3403C12.6829 22.5628 12.5969 22.7717 12.4407 22.9296ZM10.4213 13.1841L11.201 13.9694L8.73738 16.4508L7.95775 15.6656L10.4213 13.1841ZM9.51701 17.236L11.9806 14.7546L13.1501 15.9327L10.6865 18.4142L9.51701 17.236ZM20.4319 6.24242L21.0166 5.65306C21.1728 5.49578 21.3804 5.40913 21.6013 5.40913C21.8222 5.40913 22.0298 5.49578 22.186 5.65306C22.5085 5.9783 22.5085 6.50653 22.186 6.83118L21.6013 7.41995L20.4319 6.24242ZM3.66981 25.4817L2.50039 24.3036L6.78833 19.9846L7.95775 21.1627L3.66981 25.4817ZM15.8787 17.896C15.8788 17.896 15.8788 17.896 15.8789 17.8954L22.4214 11.3057C22.5006 11.2261 22.5537 11.1241 22.5739 11.0131L22.9232 9.09069C22.9558 8.91145 22.8988 8.72687 22.7707 8.59807L22.3809 8.20516L22.9657 7.6164C23.5825 6.99499 23.6931 6.05427 23.2985 5.31831L27.6372 0.947697C27.8525 0.731064 27.8525 0.3797 27.6372 0.162474C27.4218 -0.0541573 27.0729 -0.0541573 26.8576 0.162474L22.5194 4.53191C22.2408 4.37997 21.9272 4.29867 21.6013 4.29867C21.0859 4.29867 20.6014 4.50105 20.2369 4.86785L19.6522 5.4572L19.2624 5.0643C19.1343 4.9355 18.9515 4.87793 18.7733 4.91057L16.8647 5.26253C16.7546 5.28271 16.6533 5.33671 16.5742 5.41624L7.17818 14.8804L6.98325 14.6839C6.6188 14.3172 6.13427 14.1148 5.61891 14.1148C5.1035 14.1148 4.61897 14.3172 4.25452 14.6839C3.89013 15.0507 3.68943 15.5392 3.68943 16.0579C3.68943 16.5772 3.89013 17.0651 4.25452 17.4325L6.0087 19.1994L1.72076 23.5184L0.941129 22.7332C0.725818 22.5159 0.376749 22.5159 0.161439 22.7332C-0.0538129 22.9498 -0.0538129 23.3017 0.161439 23.5184L1.795 25.1636L3.27996 26.6593C3.28014 26.6598 3.28026 26.6598 3.28038 26.6598L4.44944 27.8374C4.55709 27.946 4.69822 28 4.83928 28C4.98035 28 5.12141 27.946 5.22907 27.8374C5.44438 27.6207 5.44438 27.2688 5.22907 27.0522L4.44944 26.2669L8.73744 21.9479L10.4916 23.7148C10.8677 24.0935 11.3618 24.2828 11.8559 24.2828C12.35 24.2828 12.8441 24.0935 13.2203 23.7148C13.5848 23.3475 13.7854 22.8596 13.7854 22.3403C13.7854 21.8209 13.5848 21.3331 13.2203 20.9663L13.0254 20.7698L15.8787 17.896H15.8787Z" fill="#84A17D"/>
<path d="M24.8082 26.8895V23.5576H27.5646V26.8895H24.8082ZM20.9493 23.5576H23.7056V26.8895H20.9493V23.5576ZM21.9571 16.6728C21.9781 16.4829 22.1373 16.3393 22.3275 16.3393C22.5176 16.3393 22.6768 16.4829 22.6978 16.6728L23.0897 20.2262H21.5652L21.9571 16.6728ZM25.8161 16.6728C25.8371 16.4829 25.9963 16.3393 26.1864 16.3393C26.3766 16.3393 26.5358 16.4829 26.5568 16.6728L26.9487 20.2262H25.4242L25.8161 16.6728ZM24.8082 21.3366H27.5646V22.4471H24.8082V21.3366ZM20.9493 21.3366H23.7056V22.4471H20.9493V21.3366ZM28.1159 20.2262H28.0581L27.6526 16.5505C27.5695 15.7968 26.9393 15.2288 26.1864 15.2288C25.4336 15.2288 24.8034 15.7968 24.7203 16.5505L24.3148 20.2262H24.2569H24.1991L23.7936 16.5505C23.7105 15.7968 23.0802 15.2288 22.3275 15.2288C21.5747 15.2288 20.9444 15.7968 20.8614 16.5505L20.4558 20.2262H20.398C20.0935 20.2262 19.8467 20.4748 19.8467 20.7817V27.4445C19.8467 27.7513 20.0935 28 20.398 28H24.2569H28.1159C28.4204 28 28.6672 27.7513 28.6672 27.4445V20.7817C28.6672 20.4748 28.4204 20.2262 28.1159 20.2262Z" fill="#84A17D"/>
<path d="M10.4741 6.34375C11.994 6.34375 13.2306 5.09797 13.2306 3.56731C13.2306 2.03604 11.994 0.790848 10.4741 0.790848C8.95425 0.790848 7.71777 2.03604 7.71777 3.56731C7.71777 5.09797 8.95425 6.34375 10.4741 6.34375Z" fill="#84A17D"/>
<path d="M6.89238 8.56438C7.34833 8.56438 7.71932 8.93828 7.71932 9.39707C7.71932 9.85645 7.34833 10.2304 6.89238 10.2304C6.43642 10.2304 6.06543 9.85645 6.06543 9.39707C6.06543 8.93828 6.43642 8.56438 6.89238 8.56438ZM6.89238 11.3408C7.95626 11.3408 8.82186 10.469 8.82186 9.39707C8.82186 8.32578 7.95626 7.4539 6.89238 7.4539C5.82843 7.4539 4.96289 8.32578 4.96289 9.39707C4.96289 10.469 5.82843 11.3408 6.89238 11.3408Z" fill="#84A17D"/>
</svg>
