<svg width="26" height="28" viewBox="0 0 26 28" fill="none" xmlns="http://www.w3.org/2000/svg">
<path d="M22.2735 23.5321C22.1527 23.7384 22.1807 23.9993 22.3442 24.1731C22.44 24.2763 22.5328 24.3839 22.6183 24.4929C23.4111 25.5067 23.526 26.4587 23.3212 26.6178C23.2858 26.6458 23.2254 26.6517 23.1812 26.6517C22.7863 26.6517 22.0569 26.2303 21.4277 25.4257C21.3997 25.3903 21.3717 25.3535 21.3451 25.3166C21.1801 25.0941 20.8736 25.0322 20.6349 25.1737C18.9742 26.164 16.2421 26.7313 13.1403 26.7313C9.81587 26.7313 6.65653 26.0947 4.6896 25.0278C4.43644 24.8893 4.1202 24.9762 3.97137 25.2223C3.87367 25.3844 3.76375 25.5436 3.64454 25.6954C3.01429 26.4999 2.28501 26.9214 1.89053 26.9214C1.84633 26.9214 1.78606 26.9155 1.7504 26.8874C1.54587 26.7283 1.66051 25.7764 2.45344 24.7626C2.59638 24.5799 2.75096 24.4089 2.91276 24.2557C3.10403 24.0729 3.13512 23.7797 2.98643 23.5616C1.78282 21.7977 1.0693 18.3923 1.07785 14.452C1.0861 10.6285 1.78768 6.95234 2.90893 4.85897C3.02048 4.65061 2.98319 4.39391 2.81712 4.22578C2.68906 4.09625 2.56676 3.95714 2.45344 3.81244C1.66051 2.79965 1.54587 1.84742 1.7504 1.68739C1.78606 1.65954 1.84633 1.65365 1.89053 1.65365C2.28501 1.65365 3.01428 2.07494 3.64438 2.87996C3.66722 2.90899 3.68918 2.93802 3.71099 2.9672C3.88414 3.1987 4.20905 3.25248 4.44748 3.08891C6.25556 1.84831 9.5692 1.07763 13.0946 1.07763C16.2893 1.07763 19.0434 1.7008 20.654 2.78712C20.8913 2.94701 21.211 2.89411 21.3849 2.66644L21.3982 2.64905L21.4277 2.61029C22.0569 1.80513 22.7863 1.38398 23.1812 1.38398C23.2254 1.38398 23.2858 1.38988 23.3212 1.41773C23.526 1.57776 23.4111 2.52998 22.6183 3.54263C22.5093 3.68203 22.3914 3.81642 22.2676 3.94211C22.1055 4.10819 22.0672 4.35958 22.1733 4.56617C23.2696 6.69357 23.9534 10.2804 23.9991 14.1617C24.0477 18.1138 23.4022 21.6165 22.2735 23.5321ZM25.0777 14.1484C25.0306 10.3037 24.3704 6.70654 23.2991 4.41218C23.3566 4.34499 23.4126 4.27647 23.4671 4.20706C24.5855 2.77769 24.8095 1.21378 23.9858 0.569094C23.7662 0.397127 23.4877 0.30621 23.1812 0.30621C22.4547 0.30621 21.5824 0.806782 20.8397 1.6342C19.0287 0.591492 16.2451 0 13.0946 0C9.61444 0 6.29417 0.733398 4.25798 1.93333C3.51014 1.08853 2.62541 0.575874 1.89053 0.575874C1.58388 0.575874 1.30567 0.666792 1.08611 0.838907C0.262822 1.48345 0.485777 3.04736 1.60481 4.47673C1.66258 4.55055 1.7224 4.6232 1.7837 4.69423C0.671148 6.99375 0.00833235 10.5975 8.03212e-05 14.4505C-0.00846643 18.4056 0.665403 21.7727 1.85915 23.7944C1.77147 23.8932 1.6866 23.9948 1.60481 24.098C0.485777 25.5274 0.262822 27.0923 1.08611 27.7363C1.30567 27.9087 1.58388 28 1.89053 28C2.7041 28 3.70127 27.3708 4.49317 26.3599C4.53487 26.3069 4.57554 26.2524 4.61533 26.1979C6.74067 27.2116 9.87776 27.8099 13.1403 27.8099C16.1935 27.8099 18.9373 27.2735 20.7749 26.3275C21.5308 27.1984 22.4326 27.7304 23.1812 27.7304C23.4877 27.7304 23.7662 27.639 23.9858 27.4666C24.8095 26.8226 24.5855 25.2577 23.4671 23.8283C23.442 23.7974 23.417 23.7664 23.3919 23.7355C24.5133 21.59 25.1249 18.13 25.0777 14.1484Z" fill="#06030E"/>
<path d="M19.5725 17.2949H5.5078V10.7052H19.5725V17.2949ZM20.1104 9.62742H4.96907C4.6714 9.62742 4.43018 9.86879 4.43018 10.1663V17.8342C4.43018 18.1319 4.6714 18.3721 4.96907 18.3721H20.1104C20.408 18.3721 20.6497 18.1319 20.6497 17.8342V10.1663C20.6497 9.86879 20.408 9.62742 20.1104 9.62742Z" fill="#06030E"/>
<path d="M9.3929 13.3086H15.6865C15.9842 13.3086 16.2259 13.0669 16.2259 12.7693C16.2259 12.4716 15.9842 12.2314 15.6865 12.2314H9.3929C9.09523 12.2314 8.854 12.4716 8.854 12.7693C8.854 13.0669 9.09523 13.3086 9.3929 13.3086Z" fill="#06030E"/>
<path d="M7.29475 15.998H17.7849C18.0825 15.998 18.3242 15.7564 18.3242 15.4587C18.3242 15.1611 18.0825 14.9194 17.7849 14.9194H7.29475C6.99709 14.9194 6.75586 15.1611 6.75586 15.4587C6.75586 15.7564 6.99709 15.998 7.29475 15.998Z" fill="#06030E"/>
</svg>
