<svg width="36" height="36" viewBox="0 0 36 36" fill="none" xmlns="http://www.w3.org/2000/svg">
<path d="M17.9993 34.6148C8.83758 34.6148 1.3845 27.1617 1.3845 18C1.3845 8.83831 8.83758 1.3845 17.9993 1.3845C27.1609 1.3845 34.6147 8.83831 34.6147 18C34.6147 27.1617 27.1609 34.6148 17.9993 34.6148ZM30.7276 5.27161C27.3274 1.87215 22.8076 0 17.9993 0C13.1916 0 8.67108 1.87215 5.27162 5.27161C1.87215 8.67182 0 13.1916 0 18C0 22.8076 1.87215 27.3282 5.27162 30.7276C8.67108 34.1271 13.1916 36 17.9993 36C22.8076 36 27.3274 34.1271 30.7276 30.7276C34.1271 27.3282 35.9993 22.8076 35.9993 18C35.9993 13.1916 34.1271 8.67182 30.7276 5.27161Z" fill="#1C293F"/>
<path d="M13.845 24.2307C13.4631 24.2307 13.1523 24.5415 13.1523 24.9226C13.1523 25.3044 13.4631 25.6152 13.845 25.6152C14.2268 25.6152 14.5368 25.3044 14.5368 24.9226C14.5368 24.5415 14.2268 24.2307 13.845 24.2307Z" fill="#1C293F"/>
<path d="M14.5381 11.9992C13.1388 11.9992 12 13.138 12 14.538C12 15.9373 13.1388 17.0762 14.5381 17.0762C15.9382 17.0762 17.077 15.9373 17.077 14.538C17.077 13.138 15.9382 11.9992 14.5381 11.9992Z" fill="#1C293F"/>
<path d="M22.154 21.4615C21.3904 21.4615 20.7695 22.0823 20.7695 22.846C20.7695 23.6096 21.3904 24.2305 22.154 24.2305C22.9177 24.2305 23.5385 23.6096 23.5385 22.846C23.5385 22.0823 22.9177 21.4615 22.154 21.4615Z" fill="#1C293F"/>
<path d="M24.5753 12.461C24.0025 12.461 23.5371 12.9271 23.5371 13.4992C23.5371 14.0719 24.0025 14.5381 24.5753 14.5381C25.148 14.5381 25.6142 14.0719 25.6142 13.4992C25.6142 12.9271 25.148 12.461 24.5753 12.461Z" fill="#1C293F"/>
<path d="M24.577 15.9228C23.2413 15.9228 22.1543 14.8358 22.1543 13.4994C22.1543 12.1637 23.2413 11.0767 24.577 11.0767C25.9134 11.0767 27.0004 12.1637 27.0004 13.4994C27.0004 14.8358 25.9134 15.9228 24.577 15.9228ZM25.6159 23.538H24.836C24.7701 23.7918 24.6688 24.0315 24.5385 24.2513L25.0913 24.8041C25.3614 25.0742 25.3614 25.513 25.0913 25.7831C24.9559 25.9185 24.779 25.9858 24.6022 25.9858C24.4246 25.9858 24.2477 25.9185 24.1123 25.7831L23.5595 25.2303C23.3397 25.3605 23.1 25.4619 22.8462 25.5278V26.3077C22.8462 26.6895 22.5361 26.9996 22.1543 26.9996C21.7717 26.9996 21.4617 26.6895 21.4617 26.3077V25.5278C21.2079 25.4619 20.9689 25.3605 20.7483 25.2303L20.1963 25.7831C20.0609 25.9185 19.884 25.9858 19.7065 25.9858C19.5296 25.9858 19.352 25.9185 19.2166 25.7831C18.9465 25.513 18.9465 25.0742 19.2166 24.8041L19.7694 24.2513C19.6391 24.0315 19.5377 23.7918 19.4726 23.538H18.6927C18.3101 23.538 18.0001 23.2279 18.0001 22.8461C18.0001 22.4635 18.3101 22.1534 18.6927 22.1534H19.4726C19.5377 21.8996 19.6391 21.6606 19.7694 21.4401L19.2166 20.8881C18.9465 20.6173 18.9465 20.1792 19.2166 19.9084C19.4874 19.6383 19.9255 19.6383 20.1963 19.9084L20.7483 20.4611C20.9689 20.3309 21.2079 20.2295 21.4617 20.1644V19.3844C21.4617 19.0019 21.7717 18.6918 22.1543 18.6918C22.5361 18.6918 22.8462 19.0019 22.8462 19.3844V20.1644C23.1 20.2295 23.3397 20.3309 23.5595 20.4611L24.1123 19.9084C24.3824 19.6383 24.8212 19.6383 25.0913 19.9084C25.3614 20.1792 25.3614 20.6173 25.0913 20.8881L24.5385 21.4401C24.6688 21.6606 24.7701 21.8996 24.836 22.1534H25.6159C25.9978 22.1534 26.3078 22.4635 26.3078 22.8461C26.3078 23.2279 25.9978 23.538 25.6159 23.538ZM17.9653 18.657C17.7884 18.657 17.6108 18.5897 17.4762 18.4543L16.7783 17.7565C16.3233 18.0739 15.7979 18.2974 15.2311 18.3988V19.3844C15.2311 19.767 14.921 20.0763 14.5384 20.0763C14.1566 20.0763 13.8466 19.767 13.8466 19.3844V18.3988C13.2797 18.2974 12.7543 18.0739 12.2993 17.7565L11.6015 18.4543C11.4668 18.5897 11.2892 18.657 11.1123 18.657C10.9347 18.657 10.7579 18.5897 10.6225 18.4543C10.3524 18.1842 10.3524 17.7454 10.6225 17.4753L11.3203 16.7775C11.0028 16.3224 10.7793 15.7978 10.678 15.2302H9.69304C9.31047 15.2302 9.00043 14.9209 9.00043 14.5383C9.00043 14.1558 9.31047 13.8457 9.69304 13.8457H10.678C10.7793 13.2789 11.0028 12.7542 11.3203 12.2991L10.6225 11.6013C10.3524 11.3305 10.3524 10.8924 10.6225 10.6216C10.8926 10.3515 11.3314 10.3515 11.6015 10.6216L12.2993 11.3201C12.7543 11.002 13.2797 10.7792 13.8466 10.6778V9.69219C13.8466 9.30963 14.1566 8.99958 14.5384 8.99958C14.921 8.99958 15.2311 9.30963 15.2311 9.69219V10.6778C15.7979 10.7792 16.3233 11.002 16.7783 11.3201L17.4762 10.6216C17.7462 10.3515 18.1851 10.3515 18.4552 10.6216C18.7252 10.8924 18.7252 11.3305 18.4552 11.6013L17.7573 12.2991C18.0748 12.7542 18.2983 13.2789 18.3997 13.8457H19.3853C19.7671 13.8457 20.0772 14.1558 20.0772 14.5383C20.0772 14.9209 19.7671 15.2302 19.3853 15.2302H18.3997C18.2983 15.7978 18.0748 16.3224 17.7573 16.7775L18.4552 17.4753C18.7252 17.7454 18.7252 18.1842 18.4552 18.4543C18.3197 18.5897 18.1429 18.657 17.9653 18.657ZM13.8466 26.9996C12.7011 26.9996 11.7694 26.0679 11.7694 24.9225C11.7694 23.7777 12.7011 22.8461 13.8466 22.8461C14.992 22.8461 15.9237 23.7777 15.9237 24.9225C15.9237 26.0679 14.992 26.9996 13.8466 26.9996ZM18.0001 4.15345C10.3657 4.15345 4.1543 10.3648 4.1543 17.9999C4.1543 25.6343 10.3657 31.8457 18.0001 31.8457C25.6352 31.8457 31.8466 25.6343 31.8466 17.9999C31.8466 10.3648 25.6352 4.15345 18.0001 4.15345Z" fill="#1C293F"/>
</svg>
