<svg width="36" height="36" viewBox="0 0 36 36" fill="none" xmlns="http://www.w3.org/2000/svg">
<path d="M34.6128 30.4613C34.6128 32.6745 32.7978 34.6155 30.7063 34.6155H5.31296C3.14803 34.6155 1.38718 32.8573 1.38718 30.6973V5.30343C1.38718 3.14269 3.14803 1.3845 5.31296 1.3845H30.7063C32.8712 1.3845 34.6128 3.14269 34.6128 5.30343V30.4613ZM30.7063 0H5.31296C2.38364 0 0 2.37904 0 5.30343V30.6973C0 33.621 2.38364 36 5.31296 36H30.7063C33.586 36 36 33.4641 36 30.4613V5.30343C36 2.37904 33.6356 0 30.7063 0Z" fill="#1C293F"/>
<path d="M30.521 27.0003H5.54953V22.1541H9.01786C9.28106 22.1541 9.52128 22.0054 9.63842 21.7708L10.9374 19.1787L12.5159 24.4296C12.6026 24.7189 12.8673 24.9231 13.1698 24.9231C13.1727 24.9231 13.1764 24.9231 13.1802 24.9231C13.4782 24.9231 13.7436 24.733 13.8378 24.4496L15.067 20.7689H18.0357C18.4182 20.7689 18.7289 20.4589 18.7289 20.077C18.7289 19.6945 18.4182 19.3844 18.0357 19.3844H14.5673C14.2685 19.3844 14.0039 19.5753 13.909 19.858L13.215 21.9373L11.7633 17.109C11.6818 16.8366 11.4423 16.642 11.1583 16.6176C10.8751 16.5939 10.606 16.7441 10.4784 16.998L8.58932 20.7689H5.54953V5.53864H30.521V27.0003ZM31.215 4.15414H4.85631C4.473 4.15414 4.16235 4.46419 4.16235 4.84602V27.6921C4.16235 28.0747 4.473 28.3848 4.85631 28.3848H31.215C31.5976 28.3848 31.9082 28.0747 31.9082 27.6921V4.84602C31.9082 4.46419 31.5976 4.15414 31.215 4.15414Z" fill="#1C293F"/>
<path d="M7.975 29.0767C6.63601 29.0767 5.54688 30.1638 5.54688 31.5002C5.54688 32.8358 6.63601 33.9229 7.975 33.9229C9.31325 33.9229 10.4024 32.8358 10.4024 31.5002C10.4024 30.1638 9.31325 29.0767 7.975 29.0767Z" fill="#1C293F"/>
<path d="M13.5264 29.7698C12.5707 29.7698 11.793 30.5461 11.793 31.5006C11.793 32.4545 12.5707 33.2314 13.5264 33.2314C14.4828 33.2314 15.2605 32.4545 15.2605 31.5006C15.2605 30.5461 14.4828 29.7698 13.5264 29.7698Z" fill="#1C293F"/>
<path d="M18.3799 29.7698C17.4242 29.7698 16.6465 30.5461 16.6465 31.5006C16.6465 32.4545 17.4242 33.2314 18.3799 33.2314C19.3363 33.2314 20.1141 32.4545 20.1141 31.5006C20.1141 30.5461 19.3363 29.7698 18.3799 29.7698Z" fill="#1C293F"/>
<path d="M23.2354 29.7698C22.2797 29.7698 21.502 30.5461 21.502 31.5006C21.502 32.4545 22.2797 33.2314 23.2354 33.2314C24.1918 33.2314 24.9695 32.4545 24.9695 31.5006C24.9695 30.5461 24.1918 29.7698 23.2354 29.7698Z" fill="#1C293F"/>
<path d="M27.0527 30.461C26.6694 30.461 26.3595 30.771 26.3595 31.1536V31.8462C26.3595 32.228 26.6694 32.5381 27.0527 32.5381C27.436 32.5381 27.7467 32.228 27.7467 31.8462V31.1536C27.7467 30.771 27.436 30.461 27.0527 30.461Z" fill="#1C293F"/>
<path d="M29.826 30.461C29.4435 30.461 29.1328 30.771 29.1328 31.1536V31.8462C29.1328 32.228 29.4435 32.5381 29.826 32.5381C30.2093 32.5381 30.52 32.228 30.52 31.8462V31.1536C30.52 30.771 30.2093 30.461 29.826 30.461Z" fill="#1C293F"/>
<path d="M24.4089 25.4147C24.5439 25.5486 24.7211 25.6152 24.8975 25.6152C25.074 25.6152 25.2512 25.5486 25.3861 25.4147L28.1078 22.7167L28.3659 22.4585C28.8604 21.9657 29.1325 21.3093 29.1325 20.6122C29.1325 19.9144 28.8604 19.2588 28.3659 18.7652C27.4198 17.821 25.9236 17.7522 24.8975 18.5588C23.8714 17.7522 22.3752 17.821 21.4292 18.7652C20.409 19.7835 20.409 21.4403 21.4292 22.4585L24.4089 25.4147Z" fill="#1C293F"/>
<path d="M18.0338 13.8467H19.421C19.8036 13.8467 20.1142 13.5366 20.1142 13.1541C20.1142 12.7715 19.8036 12.4622 19.421 12.4622H18.0338C17.6505 12.4622 17.3398 12.7715 17.3398 13.1541C17.3398 13.5366 17.6505 13.8467 18.0338 13.8467Z" fill="#1C293F"/>
<path d="M22.1952 13.8467H28.4379C28.8212 13.8467 29.1318 13.5366 29.1318 13.1541C29.1318 12.7715 28.8212 12.4622 28.4379 12.4622H22.1952C21.8119 12.4622 21.502 12.7715 21.502 13.1541C21.502 13.5366 21.8119 13.8467 22.1952 13.8467Z" fill="#1C293F"/>
<path d="M18.0338 11.0771H19.421C19.8036 11.0771 20.1142 10.7678 20.1142 10.3853C20.1142 10.0027 19.8036 9.69265 19.421 9.69265H18.0338C17.6505 9.69265 17.3398 10.0027 17.3398 10.3853C17.3398 10.7678 17.6505 11.0771 18.0338 11.0771Z" fill="#1C293F"/>
<path d="M22.1952 11.0771H28.4379C28.8212 11.0771 29.1318 10.7678 29.1318 10.3853C29.1318 10.0027 28.8212 9.69265 28.4379 9.69265H22.1952C21.8119 9.69265 21.502 10.0027 21.502 10.3853C21.502 10.7678 21.8119 11.0771 22.1952 11.0771Z" fill="#1C293F"/>
<path d="M18.0338 8.30762H19.421C19.8036 8.30762 20.1142 7.99757 20.1142 7.61574C20.1142 7.23317 19.8036 6.92311 19.421 6.92311H18.0338C17.6505 6.92311 17.3398 7.23317 17.3398 7.61574C17.3398 7.99757 17.6505 8.30762 18.0338 8.30762Z" fill="#1C293F"/>
<path d="M22.1952 8.30762H28.4379C28.8212 8.30762 29.1318 7.99757 29.1318 7.61574C29.1318 7.23317 28.8212 6.92311 28.4379 6.92311H22.1952C21.8119 6.92311 21.502 7.23317 21.502 7.61574C21.502 7.99757 21.8119 8.30762 22.1952 8.30762Z" fill="#1C293F"/>
</svg>
