<svg width="27" height="32" viewBox="0 0 27 32" fill="none" xmlns="http://www.w3.org/2000/svg">
<path d="M23.4249 11.5883C23.2163 11.9527 23.0304 12.335 22.8721 12.7248C22.7725 12.9724 22.5307 13.1325 22.2566 13.1325H20.8314H6.16867H4.7444C4.47036 13.1325 4.22856 12.9724 4.12804 12.7248C3.97063 12.334 3.78383 11.9508 3.57426 11.5846C1.50234 7.96716 1.24537 4.55596 2.91997 2.8932C3.65202 2.16633 4.71596 1.79912 6.00557 1.79912C6.98891 1.79912 8.10404 2.01379 9.30168 2.44502C10.5287 2.88754 11.8126 3.1267 13.1013 3.16813C12.5399 3.82627 12.1199 4.62281 11.8591 5.62837C11.7349 6.11044 12.0269 6.60192 12.5125 6.72621C12.5883 6.74504 12.6642 6.75445 12.7391 6.75445C13.144 6.75445 13.5128 6.48424 13.6181 6.07749C14.1605 3.9835 15.6455 3.12576 18.1962 2.27649C18.1962 2.27649 18.1972 2.27554 18.1981 2.27554C20.7423 1.47241 22.8673 1.68991 24.0801 2.8932C25.7557 4.5569 25.4978 7.96999 23.4249 11.5883ZM18.3774 16.619H8.62274L8.32784 14.9355H18.6723L18.3774 16.619ZM17.7838 20.0085H9.21634L8.9385 18.4211H18.0616L17.7838 20.0085ZM17.1902 23.3981H9.80995L9.53211 21.8106H17.468L17.1902 23.3981ZM16.5966 26.7876H10.4035L10.1257 25.2002H16.8744L16.5966 26.7876ZM16.0352 29.9926C16.0143 30.1113 15.911 30.1979 15.7896 30.1979H11.2105C11.0891 30.1979 10.9858 30.1113 10.9649 29.9926L10.7193 28.5907H16.2808L16.0352 29.9926ZM25.3641 1.61835C23.6515 -0.082077 20.8561 -0.454929 17.6339 0.56382C17.6292 0.565702 17.6235 0.565706 17.6188 0.567591C17.5619 0.58642 17.5078 0.60619 17.4519 0.625021C17.3276 0.665506 17.2044 0.704111 17.0802 0.749306C14.7721 1.58163 12.2299 1.58257 9.92089 0.750244C6.46643 -0.495415 3.44626 -0.179054 1.63605 1.61835C-0.668191 3.90629 -0.529747 8.06602 1.99638 12.4762C2.16517 12.7709 2.31594 13.0807 2.44301 13.3961C2.82136 14.331 3.72409 14.9355 4.7444 14.9355H6.48444L6.77934 16.619H5.83773C5.33611 16.619 4.93026 17.022 4.93026 17.52C4.93026 18.0181 5.33611 18.4211 5.83773 18.4211H7.09511L7.37295 20.0085H6.4759C5.97523 20.0085 5.56844 20.4115 5.56844 20.9096C5.56844 21.4077 5.97523 21.8106 6.4759 21.8106H7.68871L7.96655 23.3981H7.11502C6.6134 23.3981 6.2066 23.8011 6.2066 24.2991C6.2066 24.7972 6.6134 25.2002 7.11502 25.2002H8.28231L8.56016 26.7876H7.75319C7.25157 26.7876 6.84572 27.1916 6.84572 27.6887C6.84572 28.1868 7.25157 28.5907 7.75319 28.5907H8.87592L9.17556 30.3015C9.34815 31.2863 10.2035 32 11.2105 32H15.7896C16.7966 32 17.652 31.2863 17.8245 30.3015L18.1242 28.5907H19.2469C19.7485 28.5907 20.1544 28.1868 20.1544 27.6887C20.1544 27.1916 19.7485 26.7876 19.2469 26.7876H18.4399L18.7178 25.2002H19.8851C20.3867 25.2002 20.7935 24.7972 20.7935 24.2991C20.7935 23.8011 20.3867 23.3981 19.8851 23.3981H19.0336L19.3114 21.8106H20.5242C21.0249 21.8106 21.4317 21.4077 21.4317 20.9096C21.4317 20.4115 21.0249 20.0085 20.5242 20.0085H19.6272L19.905 18.4211H21.1624C21.664 18.4211 22.0698 18.0181 22.0698 17.52C22.0698 17.022 21.664 16.619 21.1624 16.619H20.2208L20.5157 14.9355H22.2566C23.276 14.9355 24.1787 14.332 24.5571 13.397C24.6842 13.0826 24.834 12.7737 25.0028 12.48C27.5299 8.06885 27.6683 3.90723 25.3641 1.61835Z" fill="white"/>
</svg>
