<svg width="36" height="36" viewBox="0 0 36 36" fill="none" xmlns="http://www.w3.org/2000/svg">
<path d="M30.3584 23.5387H5.64085C5.19465 22.6604 4.84021 21.7332 4.59084 20.769H31.4077C31.1583 21.7332 30.8039 22.6604 30.3584 23.5387ZM22.9394 30.2459C22.6996 30.3377 22.5302 30.5545 22.4991 30.809C22.468 31.0643 22.5805 31.3152 22.7914 31.4617C23.259 31.7858 23.538 32.3179 23.538 32.8847C23.538 33.8393 22.7618 34.6155 21.8072 34.6155H14.1921C13.2375 34.6155 12.4613 33.8393 12.4613 32.8847C12.4613 32.3179 12.7402 31.7858 13.2071 31.4617C13.418 31.3152 13.5313 31.0643 13.5002 30.809C13.4691 30.5545 13.2997 30.3377 13.0599 30.2459C10.3301 29.2033 8.02581 27.3089 6.4467 24.9232H29.5526C27.9734 27.3089 25.6691 29.2033 22.9394 30.2459ZM26.1124 7.96736C26.4802 7.32358 27.1698 6.92324 27.9113 6.92324C28.743 6.92324 29.4467 7.37389 29.7945 8.12941C30.1416 8.88493 30.0261 9.71297 29.4852 10.3442L25.2962 15.231H21.9619L26.1124 7.96736ZM33.2303 15.231H27.1202L30.536 11.2455C31.4254 10.208 31.623 8.79243 31.0525 7.55075C30.4812 6.3098 29.278 5.53875 27.9113 5.53875C26.674 5.53875 25.5241 6.2062 24.9099 7.28065L20.3672 15.231H10.3841V6.23063H12.536C15.5484 6.23063 17.9993 3.77982 17.9993 0.767361V0.692616C17.9993 0.310047 17.6892 0 17.3074 0H14.4629C12.4146 0 10.6268 1.13365 9.69224 2.806C8.75691 1.13365 6.96913 0 4.92086 0H2.07638C1.69455 0 1.3845 0.310047 1.3845 0.692616V0.767361C1.3845 3.77982 3.83532 6.23063 6.84777 6.23063H8.99962V15.231H2.769C1.24168 15.231 0 16.4734 0 18C0 19.5273 1.24168 20.769 2.769 20.769H3.16637C3.71026 23.1029 4.80765 25.2932 6.36309 27.1336C7.80235 28.8363 9.60272 30.206 11.6132 31.1376C11.2684 31.6467 11.0768 32.2535 11.0768 32.8847C11.0768 34.6022 12.4738 36 14.1921 36H21.8072C23.5254 36 24.9225 34.6022 24.9225 32.8847C24.9225 32.2535 24.7309 31.6467 24.386 31.1376C26.3965 30.206 28.1969 28.8363 29.6362 27.1336C30.2755 26.3766 30.8379 25.5596 31.3159 24.699C31.3936 24.6154 31.4499 24.5126 31.478 24.3986C32.0818 23.2524 32.5384 22.0321 32.8329 20.769H33.2303C34.7568 20.769 35.9993 19.5273 35.9993 18C35.9993 16.4734 34.7568 15.231 33.2303 15.231Z" fill="#1C293F"/>
<path d="M16.5583 9.18429C17.1273 8.61525 17.8947 8.30519 18.6917 8.30741C18.6946 9.10067 18.3838 9.87173 17.8148 10.4408C17.2457 11.0098 16.4739 11.3221 15.6814 11.3176C15.6777 10.5244 15.9892 9.75333 16.5583 9.18429ZM14.365 12.0739C14.4153 12.3595 14.6395 12.5838 14.9252 12.6341C15.1812 12.6799 15.4387 12.7021 15.694 12.7021C16.8469 12.7021 17.9657 12.2478 18.7938 11.4198C19.8053 10.409 20.2589 8.96229 20.0081 7.55115C19.957 7.26552 19.7335 7.04205 19.4479 6.99099C18.0368 6.74013 16.5909 7.19374 15.5793 8.20529C14.5678 9.21684 14.1134 10.6628 14.365 12.0739Z" fill="#1C293F"/>
<path d="M20.7826 1.38456C21.5707 1.38456 22.3366 1.67907 22.9027 2.24515C23.4717 2.81419 23.7825 3.60005 23.7788 4.36149C23.7751 4.36149 23.7707 4.36149 23.7662 4.36149C22.9774 4.36149 22.2115 4.06773 21.6462 3.50164C21.0764 2.9326 20.7656 2.14673 20.7693 1.38456C20.7738 1.38456 20.7782 1.38456 20.7826 1.38456ZM23.7662 5.7793C24.0223 5.7793 24.2798 5.75709 24.5358 5.71195C24.8214 5.6609 25.0449 5.43742 25.096 5.15105C25.3468 3.74065 24.8932 2.29399 23.8817 1.28244C22.8701 0.270888 21.4242 -0.182717 20.0131 0.0681362C19.7274 0.119195 19.5032 0.342668 19.4529 0.629039C19.2013 2.03944 19.6556 3.4861 20.6665 4.49765C21.4945 5.32495 22.6133 5.7793 23.7662 5.7793Z" fill="#1C293F"/>
</svg>
