<svg width="42" height="42" viewBox="0 0 42 42" fill="none" xmlns="http://www.w3.org/2000/svg">
<path d="M35.4181 27.4619H6.581C6.06042 26.4371 5.64691 25.3554 5.35597 24.2305H36.6423C36.3514 25.3554 35.9378 26.4371 35.4181 27.4619ZM26.7626 35.2869C26.4829 35.394 26.2852 35.6469 26.2489 35.9439C26.2127 36.2417 26.3439 36.5344 26.5899 36.7053C27.1355 37.0835 27.461 37.7042 27.461 38.3655C27.461 39.4791 26.5554 40.3847 25.4417 40.3847H16.5574C15.4437 40.3847 14.5381 39.4791 14.5381 38.3655C14.5381 37.7042 14.8636 37.0835 15.4083 36.7053C15.6544 36.5344 15.7865 36.2417 15.7502 35.9439C15.714 35.6469 15.5163 35.394 15.2366 35.2869C12.0518 34.0705 9.36345 31.8604 7.52114 29.0771H34.478C32.6357 31.8604 29.9473 34.0705 26.7626 35.2869ZM30.4645 9.29525C30.8935 8.54417 31.6981 8.07712 32.5632 8.07712C33.5335 8.07712 34.3545 8.60287 34.7603 9.48431C35.1652 10.3658 35.0305 11.3318 34.3994 12.0682L29.5122 17.7695H25.6222L30.4645 9.29525ZM38.7686 17.7695H31.6403L35.6253 13.1197C36.663 11.9094 36.8935 10.2578 36.2279 8.8092C35.5614 7.36143 34.1577 6.46187 32.5632 6.46187C31.1197 6.46187 29.7781 7.24057 29.0616 8.49409L23.7617 17.7695H12.1148V7.26906H14.6253C18.1399 7.26906 20.9991 4.40978 20.9991 0.895252V0.808052C20.9991 0.361721 20.6374 0 20.1919 0H16.8734C14.4837 0 12.398 1.32259 11.3076 3.27367C10.2164 1.32259 8.13065 0 5.74101 0H2.42244C1.97698 0 1.61525 0.361721 1.61525 0.808052V0.895252C1.61525 4.40978 4.47454 7.26906 7.98907 7.26906H10.4996V17.7695H3.2305C1.44863 17.7695 0 19.219 0 21C0 22.7819 1.44863 24.2305 3.2305 24.2305H3.6941C4.32864 26.9534 5.60892 29.5088 7.4236 31.6558C9.10274 33.6423 11.2032 35.2403 13.5488 36.3272C13.1465 36.9211 12.9229 37.6291 12.9229 38.3655C12.9229 40.3692 14.5528 42 16.5574 42H25.4417C27.4463 42 29.0763 40.3692 29.0763 38.3655C29.0763 37.6291 28.8527 36.9211 28.4504 36.3272C30.796 35.2403 32.8964 33.6423 34.5755 31.6558C35.3214 30.7727 35.9776 29.8196 36.5353 28.8155C36.6259 28.718 36.6915 28.598 36.7243 28.465C37.4288 27.1278 37.9614 25.7042 38.305 24.2305H38.7686C40.5496 24.2305 41.9991 22.7819 41.9991 21C41.9991 19.219 40.5496 17.7695 38.7686 17.7695Z" fill="white"/>
<path d="M19.3184 10.7152C19.9823 10.0513 20.8775 9.68956 21.8073 9.69215C21.8108 10.6176 21.4482 11.5172 20.7843 12.1811C20.1204 12.845 19.22 13.2093 18.2954 13.2041C18.291 12.2786 18.6545 11.3791 19.3184 10.7152ZM16.7595 14.0864C16.8182 14.4196 17.0798 14.6812 17.4131 14.7399C17.7118 14.7934 18.0122 14.8193 18.31 14.8193C19.6551 14.8193 20.9604 14.2893 21.9264 13.3232C23.1066 12.1439 23.6358 10.4562 23.3431 8.80984C23.2836 8.47661 23.0228 8.21588 22.6896 8.15632C21.0433 7.86365 19.3564 8.39286 18.1762 9.573C16.9961 10.7531 16.466 12.4401 16.7595 14.0864Z" fill="white"/>
<path d="M24.2469 1.61499C25.1664 1.61499 26.0599 1.95859 26.7203 2.61902C27.3842 3.2829 27.7468 4.19974 27.7425 5.08808C27.7382 5.08808 27.733 5.08808 27.7278 5.08808C26.8075 5.08808 25.914 4.74535 25.2544 4.08492C24.5897 3.42104 24.2271 2.5042 24.2314 1.61499C24.2366 1.61499 24.2418 1.61499 24.2469 1.61499ZM27.7278 6.74219C28.0265 6.74219 28.3269 6.71628 28.6256 6.66362C28.9589 6.60405 29.2196 6.34334 29.2792 6.00923C29.5718 4.36377 29.0426 2.676 27.8625 1.49585C26.6823 0.315711 24.9954 -0.213495 23.3491 0.0791674C23.0159 0.138736 22.7543 0.399453 22.6956 0.733554C22.402 2.37902 22.9321 4.06679 24.1114 5.24693C25.0774 6.21211 26.3828 6.74219 27.7278 6.74219Z" fill="white"/>
</svg>
