<svg width="29" height="28" viewBox="0 0 29 28" fill="none" xmlns="http://www.w3.org/2000/svg">
<path d="M15.9868 8.78357H17.0893V9.88154H15.9868V8.78357ZM15.4358 10.9795H17.6408C17.9449 10.9795 18.1918 10.7336 18.1918 10.4302V8.2343C18.1918 7.93091 17.9449 7.68503 17.6408 7.68503H15.4358C15.1312 7.68503 14.8843 7.93091 14.8843 8.2343V10.4302C14.8843 10.7336 15.1312 10.9795 15.4358 10.9795Z" fill="#84A17D"/>
<path d="M20.9487 8.78357H22.0512V9.88154H20.9487V8.78357ZM20.3977 10.9795H22.6027C22.9074 10.9795 23.1537 10.7336 23.1537 10.4302V8.2343C23.1537 7.93091 22.9074 7.68503 22.6027 7.68503H20.3977C20.0931 7.68503 19.8462 7.93091 19.8462 8.2343V10.4302C19.8462 10.7336 20.0931 10.9795 20.3977 10.9795Z" fill="#84A17D"/>
<path d="M17.0893 14.2735H15.9868V13.1756H17.0893V14.2735ZM18.1918 14.8228V12.6269C18.1918 12.3235 17.9449 12.0776 17.6408 12.0776H15.4358C15.1312 12.0776 14.8843 12.3235 14.8843 12.6269V14.8228C14.8843 15.1262 15.1312 15.3721 15.4358 15.3721H17.6408C17.9449 15.3721 18.1918 15.1262 18.1918 14.8228Z" fill="#84A17D"/>
<path d="M7.16739 9.88154H6.0649V8.78357H7.16739V9.88154ZM7.71893 7.68503H5.51336C5.20871 7.68503 4.9624 7.93091 4.9624 8.2343V10.4302C4.9624 10.7336 5.20871 10.9795 5.51336 10.9795H7.71893C8.02299 10.9795 8.26988 10.7336 8.26988 10.4302V8.2343C8.26988 7.93091 8.02299 7.68503 7.71893 7.68503Z" fill="#84A17D"/>
<path d="M12.1269 9.88154H11.0244V8.78357H12.1269V9.88154ZM12.6784 7.68503H10.4728C10.1688 7.68503 9.92188 7.93091 9.92188 8.2343V10.4302C9.92188 10.7336 10.1688 10.9795 10.4728 10.9795H12.6784C12.9825 10.9795 13.2294 10.7336 13.2294 10.4302V8.2343C13.2294 7.93091 12.9825 7.68503 12.6784 7.68503Z" fill="#84A17D"/>
<path d="M7.16739 14.2735H6.0649V13.1756H7.16739V14.2735ZM7.71893 12.0776H5.51336C5.20871 12.0776 4.9624 12.3235 4.9624 12.6269V14.8228C4.9624 15.1262 5.20871 15.3721 5.51336 15.3721H7.71893C8.02299 15.3721 8.26988 15.1262 8.26988 14.8228V12.6269C8.26988 12.3235 8.02299 12.0776 7.71893 12.0776Z" fill="#84A17D"/>
<path d="M12.1269 14.2735H11.0244V13.1756H12.1269V14.2735ZM12.6784 12.0776H10.4728C10.1688 12.0776 9.92188 12.3235 9.92188 12.6269V14.8228C9.92188 15.1262 10.1688 15.3721 10.4728 15.3721H12.6784C12.9825 15.3721 13.2294 15.1262 13.2294 14.8228V12.6269C13.2294 12.3235 12.9825 12.0776 12.6784 12.0776Z" fill="#84A17D"/>
<path d="M27.5642 22.9333C27.5642 23.6082 27.0132 24.1569 26.3356 24.1569H16.7584C16.8839 23.8048 16.9758 23.4374 17.0306 23.0583H21.5001C21.5184 23.0583 21.5367 23.0577 21.5549 23.056C21.5685 23.0548 21.582 23.0524 21.595 23.0501C21.5997 23.0489 21.6039 23.0489 21.6086 23.0478C21.6245 23.0448 21.6398 23.0407 21.6551 23.036C21.6569 23.0354 21.6587 23.0354 21.6604 23.0348C21.6763 23.0301 21.6911 23.0243 21.7064 23.0184C21.7081 23.0178 21.7099 23.0172 21.7111 23.0166C21.7252 23.0108 21.7388 23.0043 21.7523 22.9973C21.7547 22.9961 21.7576 22.9949 21.76 22.9938C21.7724 22.9873 21.7842 22.9797 21.7954 22.9726C21.7995 22.9703 21.803 22.9679 21.8066 22.9656C21.8172 22.9591 21.8266 22.9515 21.8366 22.9439C21.8407 22.9404 21.8454 22.9374 21.8502 22.9339C21.8602 22.9257 21.8696 22.9163 21.879 22.9075C21.8826 22.904 21.8861 22.901 21.8896 22.8981L25.7487 19.055C25.7522 19.0514 25.7552 19.0473 25.7587 19.0438C25.7675 19.0344 25.7764 19.025 25.7852 19.015C25.7887 19.0109 25.7917 19.0057 25.7952 19.0016C25.8029 18.9916 25.8105 18.9822 25.817 18.9716C25.8194 18.9681 25.8217 18.964 25.8241 18.9605C25.8312 18.9493 25.8388 18.9376 25.8453 18.9253C25.8465 18.9229 25.8477 18.9206 25.8488 18.9176C25.8559 18.9041 25.8624 18.8906 25.8683 18.8771C25.8689 18.8754 25.8695 18.8736 25.8701 18.8719C25.8759 18.8572 25.8818 18.8419 25.8866 18.8267C25.8871 18.8243 25.8871 18.8226 25.8877 18.8208C25.8924 18.8056 25.8966 18.7903 25.8995 18.7744C25.9007 18.7698 25.9007 18.7651 25.9019 18.7604C25.9036 18.7475 25.906 18.7345 25.9078 18.721C25.9095 18.7029 25.9101 18.6847 25.9101 18.6665V6.03907C25.9101 5.73568 25.6632 5.4898 25.3592 5.4898H22.6026C21.9945 5.4898 21.5001 4.99744 21.5001 4.39183H26.3356C27.0132 4.39183 27.5642 4.94051 27.5642 5.61537V22.9333ZM11.3013 16.4706C8.20184 16.4706 5.66391 18.9088 5.51955 21.9604H3.30748V6.58775H24.8076V18.1172H21.5001C21.1955 18.1172 20.9486 18.3631 20.9486 18.6665V21.9604H17.0831C16.9387 18.9088 14.4008 16.4706 11.3013 16.4706ZM14.333 23.0583C14.333 23.3617 14.0861 23.6076 13.7821 23.6076H12.6796V24.7055C12.6796 25.0089 12.4327 25.2548 12.128 25.2548H10.474C10.17 25.2548 9.92305 25.0089 9.92305 24.7055V23.6076H8.82056C8.51591 23.6076 8.26901 23.3617 8.26901 23.0583V21.4117C8.26901 21.1083 8.51591 20.8624 8.82056 20.8624H9.92305V19.7644C9.92305 19.461 10.17 19.2158 10.474 19.2158H12.128C12.4327 19.2158 12.6796 19.461 12.6796 19.7644V20.8624H13.7821C14.0861 20.8624 14.333 21.1083 14.333 21.4117V23.0583ZM2.3305 24.1569C1.65345 24.1569 1.10249 23.6082 1.10249 22.9333V5.61537C1.10249 4.94051 1.65345 4.39183 2.3305 4.39183H3.85843C3.85843 4.79146 3.96686 5.16645 4.15542 5.4898H2.75594C2.45189 5.4898 2.20499 5.73568 2.20499 6.03907V22.5096C2.20499 22.813 2.45189 23.0583 2.75594 23.0583H5.57199C5.62679 23.4374 5.71871 23.8048 5.84364 24.1569H2.3305ZM9.37151 4.39183C9.37151 4.79146 9.47993 5.16645 9.66849 5.4898H6.06402C5.45591 5.4898 4.96153 4.99744 4.96153 4.39183H9.37151ZM4.96153 2.19592C4.96153 1.59031 5.45591 1.09796 6.06402 1.09796C6.67213 1.09796 7.16651 1.59031 7.16651 2.19592V3.29387H4.96153V2.19592ZM14.8846 4.39183C14.8846 4.79146 14.993 5.16645 15.181 5.4898H11.5765C10.969 5.4898 10.474 4.99744 10.474 4.39183H14.8846ZM10.474 2.19592C10.474 1.59031 10.969 1.09796 11.5765 1.09796C12.1846 1.09796 12.6796 1.59031 12.6796 2.19592V3.29387H10.474V2.19592ZM20.3976 4.39183C20.3976 4.79146 20.5061 5.16645 20.694 5.4898H17.0896C16.4815 5.4898 15.9871 4.99744 15.9871 4.39183H20.3976ZM15.9871 2.19592C15.9871 1.59031 16.4815 1.09796 17.0896 1.09796C17.6977 1.09796 18.1921 1.59031 18.1921 2.19592V3.29387H15.9871V2.19592ZM21.5001 2.19592C21.5001 1.59031 21.9945 1.09796 22.6026 1.09796C23.2107 1.09796 23.7051 1.59031 23.7051 2.19592V3.29387H21.5001V2.19592ZM26.3356 3.29387H24.8076V2.19592C24.8076 0.984697 23.8183 1.90735e-06 22.6026 1.90735e-06C21.3864 1.90735e-06 20.3976 0.984697 20.3976 2.19592V3.29387H19.2952V2.19592C19.2952 0.984697 18.3058 1.90735e-06 17.0896 1.90735e-06C15.8739 1.90735e-06 14.8846 0.984697 14.8846 2.19592V3.29387H13.7821V2.19592C13.7821 0.984697 12.7927 1.90735e-06 11.5765 1.90735e-06C10.3609 1.90735e-06 9.37151 0.984697 9.37151 2.19592V3.29387H8.26901V2.19592C8.26901 0.984697 7.27965 1.90735e-06 6.06402 1.90735e-06C4.8478 1.90735e-06 3.85843 0.984697 3.85843 2.19592V3.29387H2.3305C1.04534 3.29387 0 4.33549 0 5.61537V22.9333C0 24.2132 1.04534 25.2548 2.3305 25.2548H6.37221C7.3928 26.9003 9.22007 28 11.3013 28C13.382 28 15.2098 26.9003 16.2298 25.2548H26.3356C27.6213 25.2548 28.6667 24.2132 28.6667 22.9333V5.61537C28.6667 4.33549 27.6213 3.29387 26.3356 3.29387Z" fill="#84A17D"/>
<path d="M11.5761 21.4111V20.3131H11.0251V21.4111C11.0251 21.7139 10.7782 21.9597 10.4736 21.9597H9.37109V22.509H10.4736C10.7782 22.509 11.0251 22.7549 11.0251 23.0577V24.1562H11.5761V23.0577C11.5761 22.7549 11.823 22.509 12.1276 22.509H13.2301V21.9597H12.1276C11.823 21.9597 11.5761 21.7139 11.5761 21.4111Z" fill="#84A17D"/>
</svg>
