<svg width="32" height="28" viewBox="0 0 32 28" fill="none" xmlns="http://www.w3.org/2000/svg">
<path d="M3.49451 15.051L5.83301 7.1468L15.999 3.37106L26.1649 7.1468L28.5034 15.051H26.7434C26.4372 15.051 26.1887 15.2961 26.1887 15.5981V26.9069H21.1152V18.8951L21.1116 18.8596C21.1102 18.8396 21.109 18.8199 21.1055 18.8C21.1025 18.7829 21.0976 18.7666 21.0931 18.7502C21.0881 18.7326 21.0834 18.7152 21.0765 18.698C21.0699 18.6809 21.0615 18.665 21.0532 18.6487C21.0453 18.6335 21.0377 18.6182 21.0283 18.6034C21.0174 18.5865 21.0048 18.571 20.992 18.5554L20.9705 18.5269L20.9612 18.5187C20.9471 18.504 20.9312 18.4913 20.9154 18.4782L20.8783 18.4478C20.8629 18.4374 20.8464 18.4291 20.8302 18.42C20.8149 18.4116 20.8001 18.4024 20.7844 18.3957C20.7684 18.3886 20.7514 18.384 20.7348 18.3786C20.7173 18.3729 20.7 18.3664 20.682 18.3625C20.6663 18.359 20.65 18.3578 20.6339 18.3556C20.6135 18.3531 20.5934 18.3501 20.5727 18.3496L20.5604 18.3483H11.0251L11.0128 18.3496C10.9922 18.3501 10.972 18.3531 10.9515 18.3557C10.9354 18.3578 10.9192 18.359 10.9037 18.3625C10.8855 18.3665 10.8681 18.3729 10.8503 18.3788C10.8338 18.3841 10.8171 18.3886 10.8013 18.3955C10.7852 18.4025 10.7704 18.4118 10.7549 18.4203C10.7388 18.4293 10.7224 18.4374 10.7074 18.4478L10.6698 18.4785C10.6542 18.4915 10.6384 18.504 10.6243 18.5187L10.615 18.5269L10.5935 18.5554C10.5809 18.5711 10.5683 18.5865 10.5574 18.6034C10.548 18.6182 10.5402 18.6335 10.5323 18.6487C10.524 18.665 10.5157 18.6809 10.509 18.698C10.5023 18.7152 10.4975 18.7326 10.4926 18.7502C10.4879 18.7666 10.4832 18.7829 10.4802 18.8C10.4765 18.8199 10.4753 18.8396 10.4741 18.8595L10.4705 18.8951V26.9069H5.54583V15.5981C5.54583 15.2961 5.29749 15.051 4.99105 15.051H3.49451ZM14.9691 23.1742L11.5799 26.2162V20.1322L14.9691 23.1742ZM15.7928 22.4349L12.4579 19.4415H19.1278L15.7928 22.4349ZM19.1278 26.9069H12.4579L15.7928 23.9137L19.1278 26.9069ZM20.0057 26.2162L16.6166 23.1742L20.0057 20.1322V26.2162ZM4.99105 28H26.7434C27.0499 28 27.2982 27.7555 27.2982 27.4535V16.1437H29.2431C29.4177 16.1437 29.582 16.063 29.6868 15.9254C29.7916 15.7879 29.8246 15.61 29.7756 15.4441L27.1524 6.57879C27.1036 6.41437 26.9789 6.28134 26.8157 6.22005L16.1947 2.27541C16.0685 2.22907 15.9294 2.22907 15.8033 2.27541L5.18235 6.22005C5.01912 6.28134 4.89426 6.41437 4.84557 6.57879L2.22239 15.4441C2.1735 15.61 2.20639 15.7879 2.31115 15.9254C2.41592 16.063 2.58031 16.1437 2.75495 16.1437H4.43632V27.4535C4.43632 27.7555 4.68476 28 4.99105 28Z" fill="#06030E"/>
<path d="M0.399625 16.1228C0.693794 16.2066 1.00169 16.0406 1.08751 15.7506L4.10606 5.549L16 1.13054L27.8941 5.549L30.9125 15.7506C30.9832 15.9898 31.2046 16.1438 31.4449 16.1438C31.4963 16.1438 31.5486 16.1378 31.6004 16.1228C31.8945 16.0376 32.0635 15.7342 31.9776 15.4442L28.8817 4.981C28.8328 4.81658 28.708 4.68354 28.5447 4.62226L16.1957 0.0348759C16.0695 -0.0114613 15.9304 -0.0114613 15.8043 0.0348759L3.45534 4.62226C3.29208 4.68354 3.16727 4.81658 3.11845 4.981L0.0223216 15.4442C-0.0634367 15.7342 0.105455 16.0376 0.399625 16.1228Z" fill="#06030E"/>
<path d="M14.383 7.30515L16.0005 6.634L17.6181 7.30515V9.55774H14.383V7.30515ZM13.8282 10.6504H18.1727C18.4792 10.6504 18.7275 10.4053 18.7275 10.1033V6.94342C18.7275 6.72369 18.5939 6.52489 18.3883 6.43969L16.216 5.53687C16.0781 5.47857 15.9228 5.47857 15.7849 5.53687L13.6125 6.43969C13.4071 6.52489 13.2734 6.72369 13.2734 6.94342V10.1033C13.2734 10.4053 13.5218 10.6504 13.8282 10.6504Z" fill="#06030E"/>
</svg>
