<svg width="20" height="20" viewBox="0 0 20 20" fill="none" xmlns="http://www.w3.org/2000/svg">
<path d="M6.71726 7.93168C9.33586 6.67931 11.3852 4.55408 12.5617 1.89753C11.8027 1.10057 10.8159 0.531309 9.75332 0.189753L9.18406 0C9.14611 0.0759013 9.10816 0.189758 9.10816 0.265659C8.19734 2.8463 6.33776 4.93359 3.83302 6.11006C2.08729 6.94497 0.796964 8.463 0.189753 10.2846L0 10.8539C0.0759013 10.8918 0.189755 10.9298 0.265656 10.9298C0.986719 11.1954 1.70778 11.537 2.39089 11.9545C3.33966 10.2467 4.85768 8.80455 6.71726 7.93168Z" fill="#1C293F"/>
<path d="M17.726 8.08203C16.3218 10.2073 14.3863 11.915 11.9955 13.0536C10.06 13.9644 8.5799 15.6722 7.89678 17.7215L7.70703 18.3667C8.42809 19.0118 9.30096 19.5052 10.2497 19.8088L10.819 19.9985C10.8569 19.9226 10.8949 19.8088 10.8949 19.7329C11.8057 17.1522 13.6653 15.065 16.17 13.8885C17.9158 13.0536 19.244 11.5355 19.8133 9.71392L20.003 9.14466C19.2061 8.91695 18.4471 8.53744 17.726 8.08203Z" fill="#1C293F"/>
<path d="M6.18591 16.394C7.13467 14.1169 8.8804 12.2574 11.1195 11.1947C13.1688 10.208 14.8766 8.68999 16.0531 6.83041C15.1802 5.99549 14.4591 5.04672 13.9278 3.9082C12.5237 6.48885 10.3225 8.57614 7.62803 9.86646C6.07205 10.5875 4.81968 11.8399 4.06067 13.3579C4.89558 14.1549 5.5787 15.1416 6.11001 16.2422C6.11001 16.2422 6.14795 16.3181 6.18591 16.394Z" fill="#1C293F"/>
</svg>
