<svg width="39" height="40" viewBox="0 0 39 40" fill="none" xmlns="http://www.w3.org/2000/svg">
<path d="M34.2107 16.8588C32.8381 19.2591 32.2415 21.9909 32.4831 24.7579C32.5392 25.4014 32.5672 26.0582 32.5672 26.7102C32.5672 30.6828 31.4948 34.5534 29.5489 37.6106C29.3976 37.8473 29.1743 37.8389 29.0548 37.8122C28.9547 37.7891 28.718 37.7053 28.6802 37.403C27.842 30.7362 25.9802 21.8755 19.5091 21.8755C19.5055 21.8755 19.5018 21.8755 19.4981 21.8755C16.786 21.8804 14.6021 23.5462 13.0099 26.8267C11.7911 29.3363 10.8858 32.8949 10.3185 37.4042C10.2807 37.7053 10.044 37.7903 9.94398 37.8122C9.82564 37.8401 9.60237 37.8486 9.45108 37.6106C7.50389 34.5546 6.43147 30.6828 6.43147 26.7102C6.43147 26.0582 6.45954 25.4014 6.51566 24.7579C6.75845 21.9897 6.16061 19.2555 4.78684 16.8539C1.70501 11.4596 1.34389 6.35173 3.86817 3.83971C4.98329 2.73 6.59741 2.16908 8.54582 2.16908C10.0123 2.16908 11.6679 2.48717 13.4418 3.12823C15.3744 3.82635 17.4033 4.17845 19.4335 4.18573C18.4599 5.19345 17.7498 6.444 17.3289 8.07093C17.1788 8.6525 17.5302 9.24499 18.1146 9.39433C18.2061 9.4174 18.2976 9.42833 18.3879 9.42833C18.8735 9.42833 19.3176 9.10296 19.4445 8.61245C20.2643 5.43994 22.4824 4.15052 26.2889 2.88055H26.2901C30.0979 1.67371 33.2932 2.01123 35.1306 3.83971C37.6561 6.35294 37.2949 11.4632 34.2107 16.8588ZM36.6751 2.30263C34.2338 -0.126835 30.2284 -0.652538 25.5996 0.817768C25.5984 0.818981 25.5959 0.818977 25.5947 0.818977C25.5849 0.82262 25.5752 0.826248 25.5642 0.828674C25.3153 0.908806 25.0652 0.99258 24.8127 1.08364C21.388 2.32205 17.6144 2.32207 14.1873 1.08487C9.2278 -0.707172 4.90277 -0.26403 2.32359 2.30263C-0.965644 5.57591 -0.749711 11.564 2.88846 17.9284C4.0414 19.9451 4.54284 22.2422 4.34031 24.5697C4.27809 25.2751 4.24638 25.9951 4.24638 26.7102C4.24638 31.0895 5.43959 35.3754 7.60638 38.7749C8.10172 39.5544 8.93379 40 9.82687 40C10.0233 40 10.2221 39.9781 10.421 39.9344C11.5349 39.6855 12.345 38.7992 12.4866 37.6737C13.2674 31.4623 15.1182 24.0561 19.5018 24.05C19.5043 24.05 19.5055 24.05 19.5079 24.05C23.0692 24.05 25.3605 28.5059 26.5134 37.6725C26.6537 38.798 27.465 39.6855 28.5777 39.9332C29.6831 40.1797 30.7884 39.7244 31.3936 38.7749C33.5592 35.3742 34.7524 31.0895 34.7524 26.7102C34.7524 25.9963 34.7206 25.2763 34.6596 24.5697C34.4559 22.2434 34.9573 19.9487 36.109 17.9345C39.7497 11.5676 39.9668 5.57712 36.6751 2.30263Z" fill="white"/>
<path d="M8.35967 5.29642C6.66991 5.29642 5.30103 6.65866 5.30103 8.34022C5.30103 10.0206 6.66991 11.3828 8.35967 11.3828C10.0482 11.3828 11.4171 10.0206 11.4171 8.34022C11.4171 6.65866 10.0482 5.29642 8.35967 5.29642Z" fill="white"/>
<path d="M16.8785 12.5682C15.7244 12.5682 14.7886 13.4982 14.7886 14.6468C14.7886 15.7953 15.7244 16.7266 16.8785 16.7266C18.0315 16.7266 18.9672 15.7953 18.9672 14.6468C18.9672 13.4982 18.0315 12.5682 16.8785 12.5682Z" fill="white"/>
<path d="M25.9415 11.4806C25.323 11.4806 24.8215 11.9808 24.8215 12.5964C24.8215 13.2119 25.323 13.7109 25.9415 13.7109C26.5601 13.7109 27.0615 13.2119 27.0615 12.5964C27.0615 11.9808 26.5601 11.4806 25.9415 11.4806Z" fill="white"/>
<path d="M29.5482 6.3556C28.9297 6.3556 28.427 6.85461 28.427 7.47018C28.427 8.08695 28.9297 8.58594 29.5482 8.58594C30.1668 8.58594 30.6682 8.08695 30.6682 7.47018C30.6682 6.85461 30.1668 6.3556 29.5482 6.3556Z" fill="white"/>
</svg>
